<mxfile host="Electron" modified="2024-05-01T06:08:54.205Z" agent="Mozilla/5.0 (Windows NT 10.0; Win64; x64) AppleWebKit/537.36 (KHTML, like Gecko) draw.io/24.2.5 Chrome/120.0.6099.109 Electron/28.1.0 Safari/537.36" etag="g4nXohoOIayxrGzQ9NvW" version="24.2.5" type="device">
  <diagram name="Page-1" id="s_HiEauGOBrmQb9sXRgH">
    <mxGraphModel dx="4220" dy="1720" grid="1" gridSize="5" guides="1" tooltips="1" connect="1" arrows="1" fold="1" page="1" pageScale="1" pageWidth="850" pageHeight="1100" math="0" shadow="0">
      <root>
        <mxCell id="0" />
        <mxCell id="1" parent="0" />
        <mxCell id="HR6j5fSbUc3XfzlXhDWu-80" value="€" style="rounded=1;whiteSpace=wrap;html=1;fillColor=#dae8fc;strokeColor=#6c8ebf;" parent="1" vertex="1">
          <mxGeometry x="120" y="875" width="40" height="40" as="geometry" />
        </mxCell>
        <mxCell id="HR6j5fSbUc3XfzlXhDWu-81" value="¢" style="rounded=1;whiteSpace=wrap;html=1;fillColor=#dae8fc;strokeColor=#6c8ebf;" parent="1" vertex="1">
          <mxGeometry x="165" y="865" width="40" height="40" as="geometry" />
        </mxCell>
        <mxCell id="HR6j5fSbUc3XfzlXhDWu-82" value="¬" style="rounded=1;whiteSpace=wrap;html=1;fillColor=#dae8fc;strokeColor=#6c8ebf;" parent="1" vertex="1">
          <mxGeometry x="210" y="860" width="40" height="40" as="geometry" />
        </mxCell>
        <mxCell id="HR6j5fSbUc3XfzlXhDWu-83" value="ç" style="rounded=1;whiteSpace=wrap;html=1;fillColor=#dae8fc;strokeColor=#6c8ebf;" parent="1" vertex="1">
          <mxGeometry x="255" y="865" width="40" height="40" as="geometry" />
        </mxCell>
        <mxCell id="HR6j5fSbUc3XfzlXhDWu-84" value="|" style="rounded=1;whiteSpace=wrap;html=1;fillColor=#dae8fc;strokeColor=#6c8ebf;" parent="1" vertex="1">
          <mxGeometry x="300" y="875" width="40" height="40" as="geometry" />
        </mxCell>
        <mxCell id="HR6j5fSbUc3XfzlXhDWu-85" value="&quot;" style="rounded=1;whiteSpace=wrap;html=1;fillColor=#dae8fc;strokeColor=#6c8ebf;" parent="1" vertex="1">
          <mxGeometry x="120" y="920" width="40" height="40" as="geometry" />
        </mxCell>
        <mxCell id="HR6j5fSbUc3XfzlXhDWu-86" value="´" style="rounded=1;whiteSpace=wrap;html=1;fillColor=#dae8fc;strokeColor=#6c8ebf;" parent="1" vertex="1">
          <mxGeometry x="165" y="910" width="40" height="40" as="geometry" />
        </mxCell>
        <mxCell id="HR6j5fSbUc3XfzlXhDWu-87" value="`" style="rounded=1;whiteSpace=wrap;html=1;fillColor=#dae8fc;strokeColor=#6c8ebf;" parent="1" vertex="1">
          <mxGeometry x="210" y="905" width="40" height="40" as="geometry" />
        </mxCell>
        <mxCell id="HR6j5fSbUc3XfzlXhDWu-88" value="&#39;" style="rounded=1;whiteSpace=wrap;html=1;fillColor=#dae8fc;strokeColor=#6c8ebf;" parent="1" vertex="1">
          <mxGeometry x="255" y="910" width="40" height="40" as="geometry" />
        </mxCell>
        <mxCell id="HR6j5fSbUc3XfzlXhDWu-89" value="°" style="rounded=1;whiteSpace=wrap;html=1;fillColor=#dae8fc;strokeColor=#6c8ebf;" parent="1" vertex="1">
          <mxGeometry x="300" y="920" width="40" height="40" as="geometry" />
        </mxCell>
        <mxCell id="HR6j5fSbUc3XfzlXhDWu-90" value="£" style="rounded=1;whiteSpace=wrap;html=1;fillColor=#dae8fc;strokeColor=#6c8ebf;" parent="1" vertex="1">
          <mxGeometry x="120" y="965" width="40" height="40" as="geometry" />
        </mxCell>
        <mxCell id="HR6j5fSbUc3XfzlXhDWu-91" value="§" style="rounded=1;whiteSpace=wrap;html=1;fillColor=#dae8fc;strokeColor=#6c8ebf;" parent="1" vertex="1">
          <mxGeometry x="165" y="955" width="40" height="40" as="geometry" />
        </mxCell>
        <mxCell id="HR6j5fSbUc3XfzlXhDWu-92" value="" style="rounded=1;whiteSpace=wrap;html=1;fillColor=#dae8fc;strokeColor=#6c8ebf;" parent="1" vertex="1">
          <mxGeometry x="210" y="950" width="40" height="40" as="geometry" />
        </mxCell>
        <mxCell id="HR6j5fSbUc3XfzlXhDWu-93" value="" style="rounded=1;whiteSpace=wrap;html=1;fillColor=#dae8fc;strokeColor=#6c8ebf;" parent="1" vertex="1">
          <mxGeometry x="255" y="955" width="40" height="40" as="geometry" />
        </mxCell>
        <mxCell id="HR6j5fSbUc3XfzlXhDWu-94" value="" style="rounded=1;whiteSpace=wrap;html=1;fillColor=#dae8fc;strokeColor=#6c8ebf;" parent="1" vertex="1">
          <mxGeometry x="300" y="965" width="40" height="40" as="geometry" />
        </mxCell>
        <mxCell id="HR6j5fSbUc3XfzlXhDWu-95" value="" style="rounded=1;whiteSpace=wrap;html=1;fillColor=#dae8fc;strokeColor=#6c8ebf;" parent="1" vertex="1">
          <mxGeometry x="225" y="1005" width="40" height="40" as="geometry" />
        </mxCell>
        <mxCell id="HR6j5fSbUc3XfzlXhDWu-96" value="&lt;font color=&quot;#7ea6e0&quot; style=&quot;font-size: 11px;&quot;&gt;LAYER&lt;/font&gt;" style="rounded=1;whiteSpace=wrap;html=1;rotation=10;fillColor=#dae8fc;strokeColor=#6c8ebf;fontSize=11;" parent="1" vertex="1">
          <mxGeometry x="275" y="1010" width="40" height="40" as="geometry" />
        </mxCell>
        <mxCell id="HR6j5fSbUc3XfzlXhDWu-97" value="" style="rounded=1;whiteSpace=wrap;html=1;direction=south;rotation=15;fillColor=#dae8fc;strokeColor=#6c8ebf;" parent="1" vertex="1">
          <mxGeometry x="320" y="1020" width="40" height="40" as="geometry" />
        </mxCell>
        <mxCell id="HR6j5fSbUc3XfzlXhDWu-98" value="@" style="rounded=1;whiteSpace=wrap;html=1;fillColor=#dae8fc;strokeColor=#6c8ebf;" parent="1" vertex="1">
          <mxGeometry x="440" y="875" width="40" height="40" as="geometry" />
        </mxCell>
        <mxCell id="HR6j5fSbUc3XfzlXhDWu-99" value="#" style="rounded=1;whiteSpace=wrap;html=1;fillColor=#dae8fc;strokeColor=#6c8ebf;" parent="1" vertex="1">
          <mxGeometry x="485" y="865" width="40" height="40" as="geometry" />
        </mxCell>
        <mxCell id="HR6j5fSbUc3XfzlXhDWu-100" value="*" style="rounded=1;whiteSpace=wrap;html=1;fillColor=#dae8fc;strokeColor=#6c8ebf;" parent="1" vertex="1">
          <mxGeometry x="530" y="860" width="40" height="40" as="geometry" />
        </mxCell>
        <mxCell id="HR6j5fSbUc3XfzlXhDWu-101" value="%" style="rounded=1;whiteSpace=wrap;html=1;fillColor=#dae8fc;strokeColor=#6c8ebf;" parent="1" vertex="1">
          <mxGeometry x="575" y="865" width="40" height="40" as="geometry" />
        </mxCell>
        <mxCell id="HR6j5fSbUc3XfzlXhDWu-102" value="&amp;amp;" style="rounded=1;whiteSpace=wrap;html=1;fillColor=#dae8fc;strokeColor=#6c8ebf;" parent="1" vertex="1">
          <mxGeometry x="620" y="875" width="40" height="40" as="geometry" />
        </mxCell>
        <mxCell id="HR6j5fSbUc3XfzlXhDWu-103" value="|" style="rounded=1;whiteSpace=wrap;html=1;fillColor=#dae8fc;strokeColor=#6c8ebf;" parent="1" vertex="1">
          <mxGeometry x="440" y="920" width="40" height="40" as="geometry" />
        </mxCell>
        <mxCell id="HR6j5fSbUc3XfzlXhDWu-104" value="/" style="rounded=1;whiteSpace=wrap;html=1;fillColor=#dae8fc;strokeColor=#6c8ebf;" parent="1" vertex="1">
          <mxGeometry x="485" y="910" width="40" height="40" as="geometry" />
        </mxCell>
        <mxCell id="HR6j5fSbUc3XfzlXhDWu-105" value="\" style="rounded=1;whiteSpace=wrap;html=1;fillColor=#dae8fc;strokeColor=#6c8ebf;" parent="1" vertex="1">
          <mxGeometry x="530" y="905" width="40" height="40" as="geometry" />
        </mxCell>
        <mxCell id="HR6j5fSbUc3XfzlXhDWu-106" value="!" style="rounded=1;whiteSpace=wrap;html=1;fillColor=#dae8fc;strokeColor=#6c8ebf;" parent="1" vertex="1">
          <mxGeometry x="575" y="910" width="40" height="40" as="geometry" />
        </mxCell>
        <mxCell id="HR6j5fSbUc3XfzlXhDWu-107" value="?" style="rounded=1;whiteSpace=wrap;html=1;fillColor=#dae8fc;strokeColor=#6c8ebf;" parent="1" vertex="1">
          <mxGeometry x="620" y="920" width="40" height="40" as="geometry" />
        </mxCell>
        <mxCell id="HR6j5fSbUc3XfzlXhDWu-108" value="&amp;lt;" style="rounded=1;whiteSpace=wrap;html=1;fillColor=#dae8fc;strokeColor=#6c8ebf;" parent="1" vertex="1">
          <mxGeometry x="440" y="965" width="40" height="40" as="geometry" />
        </mxCell>
        <mxCell id="HR6j5fSbUc3XfzlXhDWu-109" value="&amp;gt;" style="rounded=1;whiteSpace=wrap;html=1;fillColor=#dae8fc;strokeColor=#6c8ebf;" parent="1" vertex="1">
          <mxGeometry x="485" y="955" width="40" height="40" as="geometry" />
        </mxCell>
        <mxCell id="HR6j5fSbUc3XfzlXhDWu-110" value="$" style="rounded=1;whiteSpace=wrap;html=1;fillColor=#dae8fc;strokeColor=#6c8ebf;" parent="1" vertex="1">
          <mxGeometry x="530" y="950" width="40" height="40" as="geometry" />
        </mxCell>
        <mxCell id="HR6j5fSbUc3XfzlXhDWu-111" value="~" style="rounded=1;whiteSpace=wrap;html=1;fillColor=#dae8fc;strokeColor=#6c8ebf;" parent="1" vertex="1">
          <mxGeometry x="575" y="955" width="40" height="40" as="geometry" />
        </mxCell>
        <mxCell id="HR6j5fSbUc3XfzlXhDWu-112" value="^" style="rounded=1;whiteSpace=wrap;html=1;fillColor=#dae8fc;strokeColor=#6c8ebf;" parent="1" vertex="1">
          <mxGeometry x="620" y="965" width="40" height="40" as="geometry" />
        </mxCell>
        <mxCell id="HR6j5fSbUc3XfzlXhDWu-113" value="" style="rounded=1;whiteSpace=wrap;html=1;fillColor=#dae8fc;strokeColor=#6c8ebf;" parent="1" vertex="1">
          <mxGeometry x="515" y="1005" width="40" height="40" as="geometry" />
        </mxCell>
        <mxCell id="HR6j5fSbUc3XfzlXhDWu-114" value="" style="rounded=1;whiteSpace=wrap;html=1;rotation=-10;fillColor=#dae8fc;strokeColor=#6c8ebf;" parent="1" vertex="1">
          <mxGeometry x="465" y="1010" width="40" height="40" as="geometry" />
        </mxCell>
        <mxCell id="HR6j5fSbUc3XfzlXhDWu-115" value="" style="rounded=1;whiteSpace=wrap;html=1;direction=south;rotation=-15;fillColor=#dae8fc;strokeColor=#6c8ebf;" parent="1" vertex="1">
          <mxGeometry x="420" y="1020" width="40" height="40" as="geometry" />
        </mxCell>
        <mxCell id="HR6j5fSbUc3XfzlXhDWu-116" value="F12" style="rounded=1;whiteSpace=wrap;html=1;fillColor=#f8cecc;strokeColor=#b85450;" parent="1" vertex="1">
          <mxGeometry x="120" y="1135" width="40" height="40" as="geometry" />
        </mxCell>
        <mxCell id="HR6j5fSbUc3XfzlXhDWu-117" value="F7" style="rounded=1;whiteSpace=wrap;html=1;fillColor=#f8cecc;strokeColor=#b85450;" parent="1" vertex="1">
          <mxGeometry x="165" y="1125" width="40" height="40" as="geometry" />
        </mxCell>
        <mxCell id="HR6j5fSbUc3XfzlXhDWu-118" value="F8" style="rounded=1;whiteSpace=wrap;html=1;fillColor=#f8cecc;strokeColor=#b85450;" parent="1" vertex="1">
          <mxGeometry x="210" y="1120" width="40" height="40" as="geometry" />
        </mxCell>
        <mxCell id="HR6j5fSbUc3XfzlXhDWu-119" value="F9" style="rounded=1;whiteSpace=wrap;html=1;fillColor=#f8cecc;strokeColor=#b85450;" parent="1" vertex="1">
          <mxGeometry x="255" y="1125" width="40" height="40" as="geometry" />
        </mxCell>
        <mxCell id="HR6j5fSbUc3XfzlXhDWu-120" value="" style="rounded=1;whiteSpace=wrap;html=1;fillColor=#f8cecc;strokeColor=#b85450;" parent="1" vertex="1">
          <mxGeometry x="300" y="1135" width="40" height="40" as="geometry" />
        </mxCell>
        <mxCell id="HR6j5fSbUc3XfzlXhDWu-121" value="F11" style="rounded=1;whiteSpace=wrap;html=1;fillColor=#f8cecc;strokeColor=#b85450;" parent="1" vertex="1">
          <mxGeometry x="120" y="1180" width="40" height="40" as="geometry" />
        </mxCell>
        <mxCell id="HR6j5fSbUc3XfzlXhDWu-122" value="F4" style="rounded=1;whiteSpace=wrap;html=1;fillColor=#f8cecc;strokeColor=#b85450;" parent="1" vertex="1">
          <mxGeometry x="165" y="1170" width="40" height="40" as="geometry" />
        </mxCell>
        <mxCell id="HR6j5fSbUc3XfzlXhDWu-123" value="F5" style="rounded=1;whiteSpace=wrap;html=1;fillColor=#f8cecc;strokeColor=#b85450;" parent="1" vertex="1">
          <mxGeometry x="210" y="1165" width="40" height="40" as="geometry" />
        </mxCell>
        <mxCell id="HR6j5fSbUc3XfzlXhDWu-124" value="F6" style="rounded=1;whiteSpace=wrap;html=1;fillColor=#f8cecc;strokeColor=#b85450;" parent="1" vertex="1">
          <mxGeometry x="255" y="1170" width="40" height="40" as="geometry" />
        </mxCell>
        <mxCell id="HR6j5fSbUc3XfzlXhDWu-125" value="" style="rounded=1;whiteSpace=wrap;html=1;fillColor=#f8cecc;strokeColor=#b85450;" parent="1" vertex="1">
          <mxGeometry x="300" y="1180" width="40" height="40" as="geometry" />
        </mxCell>
        <mxCell id="HR6j5fSbUc3XfzlXhDWu-126" value="F10" style="rounded=1;whiteSpace=wrap;html=1;fillColor=#f8cecc;strokeColor=#b85450;" parent="1" vertex="1">
          <mxGeometry x="120" y="1225" width="40" height="40" as="geometry" />
        </mxCell>
        <mxCell id="HR6j5fSbUc3XfzlXhDWu-127" value="F1" style="rounded=1;whiteSpace=wrap;html=1;fillColor=#f8cecc;strokeColor=#b85450;" parent="1" vertex="1">
          <mxGeometry x="165" y="1215" width="40" height="40" as="geometry" />
        </mxCell>
        <mxCell id="HR6j5fSbUc3XfzlXhDWu-128" value="F2" style="rounded=1;whiteSpace=wrap;html=1;fillColor=#f8cecc;strokeColor=#b85450;" parent="1" vertex="1">
          <mxGeometry x="210" y="1210" width="40" height="40" as="geometry" />
        </mxCell>
        <mxCell id="HR6j5fSbUc3XfzlXhDWu-129" value="F3" style="rounded=1;whiteSpace=wrap;html=1;fillColor=#f8cecc;strokeColor=#b85450;" parent="1" vertex="1">
          <mxGeometry x="255" y="1215" width="40" height="40" as="geometry" />
        </mxCell>
        <mxCell id="HR6j5fSbUc3XfzlXhDWu-130" value="" style="rounded=1;whiteSpace=wrap;html=1;fillColor=#f8cecc;strokeColor=#b85450;" parent="1" vertex="1">
          <mxGeometry x="300" y="1225" width="40" height="40" as="geometry" />
        </mxCell>
        <mxCell id="HR6j5fSbUc3XfzlXhDWu-131" value="" style="rounded=1;whiteSpace=wrap;html=1;fillColor=#f8cecc;strokeColor=#b85450;" parent="1" vertex="1">
          <mxGeometry x="225" y="1265" width="40" height="40" as="geometry" />
        </mxCell>
        <mxCell id="HR6j5fSbUc3XfzlXhDWu-132" value="" style="rounded=1;whiteSpace=wrap;html=1;rotation=10;fillColor=#f8cecc;strokeColor=#b85450;" parent="1" vertex="1">
          <mxGeometry x="275" y="1270" width="40" height="40" as="geometry" />
        </mxCell>
        <mxCell id="HR6j5fSbUc3XfzlXhDWu-133" value="" style="rounded=1;whiteSpace=wrap;html=1;direction=south;rotation=15;fillColor=#f8cecc;strokeColor=#b85450;" parent="1" vertex="1">
          <mxGeometry x="320" y="1280" width="40" height="40" as="geometry" />
        </mxCell>
        <mxCell id="HR6j5fSbUc3XfzlXhDWu-134" value="" style="rounded=1;whiteSpace=wrap;html=1;fillColor=#f8cecc;strokeColor=#b85450;" parent="1" vertex="1">
          <mxGeometry x="440" y="1135" width="40" height="40" as="geometry" />
        </mxCell>
        <mxCell id="HR6j5fSbUc3XfzlXhDWu-135" value="&lt;font style=&quot;font-size: 9px;&quot;&gt;PRINT&lt;br&gt;SCREEN&lt;/font&gt;" style="rounded=1;whiteSpace=wrap;html=1;fillColor=#f8cecc;strokeColor=#b85450;" parent="1" vertex="1">
          <mxGeometry x="485" y="1125" width="40" height="40" as="geometry" />
        </mxCell>
        <mxCell id="HR6j5fSbUc3XfzlXhDWu-136" value="SCRLK" style="rounded=1;whiteSpace=wrap;html=1;fillColor=#f8cecc;strokeColor=#b85450;" parent="1" vertex="1">
          <mxGeometry x="530" y="1120" width="40" height="40" as="geometry" />
        </mxCell>
        <mxCell id="HR6j5fSbUc3XfzlXhDWu-137" value="PAUSE" style="rounded=1;whiteSpace=wrap;html=1;fillColor=#f8cecc;strokeColor=#b85450;" parent="1" vertex="1">
          <mxGeometry x="575" y="1125" width="40" height="40" as="geometry" />
        </mxCell>
        <mxCell id="HR6j5fSbUc3XfzlXhDWu-138" value="" style="rounded=1;whiteSpace=wrap;html=1;fillColor=#f8cecc;strokeColor=#b85450;" parent="1" vertex="1">
          <mxGeometry x="620" y="1135" width="40" height="40" as="geometry" />
        </mxCell>
        <mxCell id="HR6j5fSbUc3XfzlXhDWu-139" value="" style="rounded=1;whiteSpace=wrap;html=1;fillColor=#f8cecc;strokeColor=#b85450;" parent="1" vertex="1">
          <mxGeometry x="440" y="1180" width="40" height="40" as="geometry" />
        </mxCell>
        <mxCell id="HR6j5fSbUc3XfzlXhDWu-140" value="INS" style="rounded=1;whiteSpace=wrap;html=1;fillColor=#f8cecc;strokeColor=#b85450;" parent="1" vertex="1">
          <mxGeometry x="485" y="1170" width="40" height="40" as="geometry" />
        </mxCell>
        <mxCell id="HR6j5fSbUc3XfzlXhDWu-141" value="HOME" style="rounded=1;whiteSpace=wrap;html=1;fillColor=#f8cecc;strokeColor=#b85450;" parent="1" vertex="1">
          <mxGeometry x="530" y="1165" width="40" height="40" as="geometry" />
        </mxCell>
        <mxCell id="HR6j5fSbUc3XfzlXhDWu-142" value="&lt;p style=&quot;line-height: 70%;&quot;&gt;&lt;font style=&quot;font-size: 10px;&quot;&gt;PAGE&lt;br&gt;UP&lt;/font&gt;&lt;/p&gt;" style="rounded=1;whiteSpace=wrap;html=1;fillColor=#f8cecc;strokeColor=#b85450;" parent="1" vertex="1">
          <mxGeometry x="575" y="1170" width="40" height="40" as="geometry" />
        </mxCell>
        <mxCell id="HR6j5fSbUc3XfzlXhDWu-143" value="CAPS" style="rounded=1;whiteSpace=wrap;html=1;fillColor=#f8cecc;strokeColor=#b85450;" parent="1" vertex="1">
          <mxGeometry x="620" y="1180" width="40" height="40" as="geometry" />
        </mxCell>
        <mxCell id="HR6j5fSbUc3XfzlXhDWu-144" value="" style="rounded=1;whiteSpace=wrap;html=1;fillColor=#f8cecc;strokeColor=#b85450;" parent="1" vertex="1">
          <mxGeometry x="440" y="1225" width="40" height="40" as="geometry" />
        </mxCell>
        <mxCell id="HR6j5fSbUc3XfzlXhDWu-145" value="DEL" style="rounded=1;whiteSpace=wrap;html=1;fillColor=#f8cecc;strokeColor=#b85450;" parent="1" vertex="1">
          <mxGeometry x="485" y="1215" width="40" height="40" as="geometry" />
        </mxCell>
        <mxCell id="HR6j5fSbUc3XfzlXhDWu-146" value="END" style="rounded=1;whiteSpace=wrap;html=1;fillColor=#f8cecc;strokeColor=#b85450;" parent="1" vertex="1">
          <mxGeometry x="530" y="1210" width="40" height="40" as="geometry" />
        </mxCell>
        <mxCell id="HR6j5fSbUc3XfzlXhDWu-147" value="PAGE&lt;br&gt;DOWN" style="rounded=1;whiteSpace=wrap;html=1;fillColor=#f8cecc;strokeColor=#b85450;" parent="1" vertex="1">
          <mxGeometry x="575" y="1215" width="40" height="40" as="geometry" />
        </mxCell>
        <mxCell id="HR6j5fSbUc3XfzlXhDWu-148" value="" style="rounded=1;whiteSpace=wrap;html=1;fillColor=#f8cecc;strokeColor=#b85450;" parent="1" vertex="1">
          <mxGeometry x="620" y="1225" width="40" height="40" as="geometry" />
        </mxCell>
        <mxCell id="HR6j5fSbUc3XfzlXhDWu-149" value="" style="rounded=1;whiteSpace=wrap;html=1;fillColor=#f8cecc;strokeColor=#b85450;" parent="1" vertex="1">
          <mxGeometry x="515" y="1265" width="40" height="40" as="geometry" />
        </mxCell>
        <mxCell id="HR6j5fSbUc3XfzlXhDWu-150" value="" style="rounded=1;whiteSpace=wrap;html=1;rotation=-10;fillColor=#f8cecc;strokeColor=#b85450;" parent="1" vertex="1">
          <mxGeometry x="465" y="1270" width="40" height="40" as="geometry" />
        </mxCell>
        <mxCell id="HR6j5fSbUc3XfzlXhDWu-151" value="LAYER" style="rounded=1;whiteSpace=wrap;html=1;direction=south;rotation=-15;fillColor=#f8cecc;strokeColor=#b85450;fontColor=#EA6B66;fontSize=11;" parent="1" vertex="1">
          <mxGeometry x="420" y="1280" width="40" height="40" as="geometry" />
        </mxCell>
        <mxCell id="HR6j5fSbUc3XfzlXhDWu-154" value="" style="rounded=1;whiteSpace=wrap;html=1;fillColor=#d5e8d4;strokeColor=#82b366;" parent="1" vertex="1">
          <mxGeometry x="120" y="1395" width="40" height="40" as="geometry" />
        </mxCell>
        <mxCell id="HR6j5fSbUc3XfzlXhDWu-155" value="" style="rounded=1;whiteSpace=wrap;html=1;fillColor=#d5e8d4;strokeColor=#82b366;" parent="1" vertex="1">
          <mxGeometry x="165" y="1385" width="40" height="40" as="geometry" />
        </mxCell>
        <mxCell id="HR6j5fSbUc3XfzlXhDWu-156" value="" style="rounded=1;whiteSpace=wrap;html=1;fillColor=#d5e8d4;strokeColor=#82b366;" parent="1" vertex="1">
          <mxGeometry x="210" y="1380" width="40" height="40" as="geometry" />
        </mxCell>
        <mxCell id="HR6j5fSbUc3XfzlXhDWu-157" value="" style="rounded=1;whiteSpace=wrap;html=1;fillColor=#d5e8d4;strokeColor=#82b366;" parent="1" vertex="1">
          <mxGeometry x="255" y="1385" width="40" height="40" as="geometry" />
        </mxCell>
        <mxCell id="HR6j5fSbUc3XfzlXhDWu-158" value="" style="rounded=1;whiteSpace=wrap;html=1;fillColor=#d5e8d4;strokeColor=#82b366;" parent="1" vertex="1">
          <mxGeometry x="300" y="1395" width="40" height="40" as="geometry" />
        </mxCell>
        <mxCell id="HR6j5fSbUc3XfzlXhDWu-159" value="" style="rounded=1;whiteSpace=wrap;html=1;fillColor=#d5e8d4;strokeColor=#82b366;" parent="1" vertex="1">
          <mxGeometry x="120" y="1440" width="40" height="40" as="geometry" />
        </mxCell>
        <mxCell id="HR6j5fSbUc3XfzlXhDWu-160" value="" style="rounded=1;whiteSpace=wrap;html=1;fillColor=#d5e8d4;strokeColor=#82b366;" parent="1" vertex="1">
          <mxGeometry x="165" y="1430" width="40" height="40" as="geometry" />
        </mxCell>
        <mxCell id="HR6j5fSbUc3XfzlXhDWu-161" value="" style="rounded=1;whiteSpace=wrap;html=1;fillColor=#d5e8d4;strokeColor=#82b366;" parent="1" vertex="1">
          <mxGeometry x="210" y="1425" width="40" height="40" as="geometry" />
        </mxCell>
        <mxCell id="HR6j5fSbUc3XfzlXhDWu-162" value="" style="rounded=1;whiteSpace=wrap;html=1;fillColor=#d5e8d4;strokeColor=#82b366;" parent="1" vertex="1">
          <mxGeometry x="255" y="1430" width="40" height="40" as="geometry" />
        </mxCell>
        <mxCell id="HR6j5fSbUc3XfzlXhDWu-163" value="" style="rounded=1;whiteSpace=wrap;html=1;fillColor=#d5e8d4;strokeColor=#82b366;" parent="1" vertex="1">
          <mxGeometry x="300" y="1440" width="40" height="40" as="geometry" />
        </mxCell>
        <mxCell id="HR6j5fSbUc3XfzlXhDWu-164" value="" style="rounded=1;whiteSpace=wrap;html=1;fillColor=#d5e8d4;strokeColor=#82b366;" parent="1" vertex="1">
          <mxGeometry x="120" y="1485" width="40" height="40" as="geometry" />
        </mxCell>
        <mxCell id="HR6j5fSbUc3XfzlXhDWu-165" value="" style="rounded=1;whiteSpace=wrap;html=1;fillColor=#d5e8d4;strokeColor=#82b366;" parent="1" vertex="1">
          <mxGeometry x="165" y="1475" width="40" height="40" as="geometry" />
        </mxCell>
        <mxCell id="HR6j5fSbUc3XfzlXhDWu-166" value="" style="rounded=1;whiteSpace=wrap;html=1;fillColor=#d5e8d4;strokeColor=#82b366;" parent="1" vertex="1">
          <mxGeometry x="210" y="1470" width="40" height="40" as="geometry" />
        </mxCell>
        <mxCell id="HR6j5fSbUc3XfzlXhDWu-167" value="" style="rounded=1;whiteSpace=wrap;html=1;fillColor=#d5e8d4;strokeColor=#82b366;" parent="1" vertex="1">
          <mxGeometry x="255" y="1475" width="40" height="40" as="geometry" />
        </mxCell>
        <mxCell id="HR6j5fSbUc3XfzlXhDWu-168" value="" style="rounded=1;whiteSpace=wrap;html=1;fillColor=#d5e8d4;strokeColor=#82b366;" parent="1" vertex="1">
          <mxGeometry x="300" y="1485" width="40" height="40" as="geometry" />
        </mxCell>
        <mxCell id="HR6j5fSbUc3XfzlXhDWu-169" value="" style="rounded=1;whiteSpace=wrap;html=1;fillColor=#d5e8d4;strokeColor=#82b366;" parent="1" vertex="1">
          <mxGeometry x="225" y="1525" width="40" height="40" as="geometry" />
        </mxCell>
        <mxCell id="HR6j5fSbUc3XfzlXhDWu-170" value="" style="rounded=1;whiteSpace=wrap;html=1;rotation=10;fillColor=#d5e8d4;strokeColor=#82b366;" parent="1" vertex="1">
          <mxGeometry x="275" y="1530" width="40" height="40" as="geometry" />
        </mxCell>
        <mxCell id="HR6j5fSbUc3XfzlXhDWu-171" value="LAYER" style="rounded=1;whiteSpace=wrap;html=1;direction=south;rotation=15;fillColor=#d5e8d4;strokeColor=#82b366;fontColor=#82B366;fontSize=11;" parent="1" vertex="1">
          <mxGeometry x="320" y="1540" width="40" height="40" as="geometry" />
        </mxCell>
        <mxCell id="HR6j5fSbUc3XfzlXhDWu-172" value="" style="rounded=1;whiteSpace=wrap;html=1;fillColor=#d5e8d4;strokeColor=#82b366;" parent="1" vertex="1">
          <mxGeometry x="440" y="1395" width="40" height="40" as="geometry" />
        </mxCell>
        <mxCell id="HR6j5fSbUc3XfzlXhDWu-173" value="" style="rounded=1;whiteSpace=wrap;html=1;fillColor=#d5e8d4;strokeColor=#82b366;" parent="1" vertex="1">
          <mxGeometry x="485" y="1385" width="40" height="40" as="geometry" />
        </mxCell>
        <mxCell id="HR6j5fSbUc3XfzlXhDWu-174" value="" style="rounded=1;whiteSpace=wrap;html=1;fillColor=#d5e8d4;strokeColor=#82b366;" parent="1" vertex="1">
          <mxGeometry x="530" y="1380" width="40" height="40" as="geometry" />
        </mxCell>
        <mxCell id="HR6j5fSbUc3XfzlXhDWu-175" value="" style="rounded=1;whiteSpace=wrap;html=1;fillColor=#d5e8d4;strokeColor=#82b366;" parent="1" vertex="1">
          <mxGeometry x="575" y="1385" width="40" height="40" as="geometry" />
        </mxCell>
        <mxCell id="HR6j5fSbUc3XfzlXhDWu-176" value="" style="rounded=1;whiteSpace=wrap;html=1;fillColor=#d5e8d4;strokeColor=#82b366;" parent="1" vertex="1">
          <mxGeometry x="620" y="1395" width="40" height="40" as="geometry" />
        </mxCell>
        <mxCell id="HR6j5fSbUc3XfzlXhDWu-177" value="" style="rounded=1;whiteSpace=wrap;html=1;fillColor=#d5e8d4;strokeColor=#82b366;" parent="1" vertex="1">
          <mxGeometry x="440" y="1440" width="40" height="40" as="geometry" />
        </mxCell>
        <mxCell id="HR6j5fSbUc3XfzlXhDWu-178" value="" style="rounded=1;whiteSpace=wrap;html=1;fillColor=#d5e8d4;strokeColor=#82b366;" parent="1" vertex="1">
          <mxGeometry x="485" y="1430" width="40" height="40" as="geometry" />
        </mxCell>
        <mxCell id="HR6j5fSbUc3XfzlXhDWu-179" value="" style="rounded=1;whiteSpace=wrap;html=1;fillColor=#d5e8d4;strokeColor=#82b366;" parent="1" vertex="1">
          <mxGeometry x="530" y="1425" width="40" height="40" as="geometry" />
        </mxCell>
        <mxCell id="HR6j5fSbUc3XfzlXhDWu-180" value="" style="rounded=1;whiteSpace=wrap;html=1;fillColor=#d5e8d4;strokeColor=#82b366;" parent="1" vertex="1">
          <mxGeometry x="575" y="1430" width="40" height="40" as="geometry" />
        </mxCell>
        <mxCell id="HR6j5fSbUc3XfzlXhDWu-181" value="" style="rounded=1;whiteSpace=wrap;html=1;fillColor=#d5e8d4;strokeColor=#82b366;" parent="1" vertex="1">
          <mxGeometry x="620" y="1440" width="40" height="40" as="geometry" />
        </mxCell>
        <mxCell id="HR6j5fSbUc3XfzlXhDWu-182" value="" style="rounded=1;whiteSpace=wrap;html=1;fillColor=#d5e8d4;strokeColor=#82b366;" parent="1" vertex="1">
          <mxGeometry x="440" y="1485" width="40" height="40" as="geometry" />
        </mxCell>
        <mxCell id="HR6j5fSbUc3XfzlXhDWu-183" value="" style="rounded=1;whiteSpace=wrap;html=1;fillColor=#d5e8d4;strokeColor=#82b366;" parent="1" vertex="1">
          <mxGeometry x="485" y="1475" width="40" height="40" as="geometry" />
        </mxCell>
        <mxCell id="HR6j5fSbUc3XfzlXhDWu-184" value="" style="rounded=1;whiteSpace=wrap;html=1;fillColor=#d5e8d4;strokeColor=#82b366;" parent="1" vertex="1">
          <mxGeometry x="530" y="1470" width="40" height="40" as="geometry" />
        </mxCell>
        <mxCell id="HR6j5fSbUc3XfzlXhDWu-185" value="" style="rounded=1;whiteSpace=wrap;html=1;fillColor=#d5e8d4;strokeColor=#82b366;" parent="1" vertex="1">
          <mxGeometry x="575" y="1475" width="40" height="40" as="geometry" />
        </mxCell>
        <mxCell id="HR6j5fSbUc3XfzlXhDWu-186" value="" style="rounded=1;whiteSpace=wrap;html=1;fillColor=#d5e8d4;strokeColor=#82b366;" parent="1" vertex="1">
          <mxGeometry x="620" y="1485" width="40" height="40" as="geometry" />
        </mxCell>
        <mxCell id="HR6j5fSbUc3XfzlXhDWu-187" value="" style="rounded=1;whiteSpace=wrap;html=1;fillColor=#d5e8d4;strokeColor=#82b366;" parent="1" vertex="1">
          <mxGeometry x="515" y="1525" width="40" height="40" as="geometry" />
        </mxCell>
        <mxCell id="HR6j5fSbUc3XfzlXhDWu-188" value="" style="rounded=1;whiteSpace=wrap;html=1;rotation=-10;fillColor=#d5e8d4;strokeColor=#82b366;" parent="1" vertex="1">
          <mxGeometry x="465" y="1530" width="40" height="40" as="geometry" />
        </mxCell>
        <mxCell id="HR6j5fSbUc3XfzlXhDWu-189" value="" style="rounded=1;whiteSpace=wrap;html=1;direction=south;rotation=-15;fillColor=#d5e8d4;strokeColor=#82b366;" parent="1" vertex="1">
          <mxGeometry x="420" y="1540" width="40" height="40" as="geometry" />
        </mxCell>
        <mxCell id="KmkTRFpb8Al42wT6mUvf-17" value="WIN" style="text;html=1;strokeColor=none;fillColor=none;align=center;verticalAlign=middle;whiteSpace=wrap;rounded=0;fontSize=8;fontColor=#A3A3A3;fontStyle=0" parent="1" vertex="1">
          <mxGeometry x="120" y="1198" width="40" height="30" as="geometry" />
        </mxCell>
        <mxCell id="KmkTRFpb8Al42wT6mUvf-18" value="ALT" style="text;html=1;strokeColor=none;fillColor=none;align=center;verticalAlign=middle;whiteSpace=wrap;rounded=0;fontSize=8;fontColor=#A3A3A3;fontStyle=0" parent="1" vertex="1">
          <mxGeometry x="165" y="1188" width="40" height="30" as="geometry" />
        </mxCell>
        <mxCell id="KmkTRFpb8Al42wT6mUvf-19" value="CTRL" style="text;html=1;strokeColor=none;fillColor=none;align=center;verticalAlign=middle;whiteSpace=wrap;rounded=0;fontSize=8;fontColor=#A3A3A3;fontStyle=0" parent="1" vertex="1">
          <mxGeometry x="210" y="1183" width="40" height="30" as="geometry" />
        </mxCell>
        <mxCell id="KmkTRFpb8Al42wT6mUvf-20" value="SHIFT" style="text;html=1;strokeColor=none;fillColor=none;align=center;verticalAlign=middle;whiteSpace=wrap;rounded=0;fontSize=8;fontColor=#A3A3A3;fontStyle=0" parent="1" vertex="1">
          <mxGeometry x="255" y="1188" width="40" height="30" as="geometry" />
        </mxCell>
        <mxCell id="KmkTRFpb8Al42wT6mUvf-21" value="WIN" style="text;html=1;strokeColor=none;fillColor=none;align=center;verticalAlign=middle;whiteSpace=wrap;rounded=0;fontSize=8;fontColor=#A3A3A3;fontStyle=0" parent="1" vertex="1">
          <mxGeometry x="620" y="1198" width="40" height="30" as="geometry" />
        </mxCell>
        <mxCell id="KmkTRFpb8Al42wT6mUvf-22" value="ALT" style="text;html=1;strokeColor=none;fillColor=none;align=center;verticalAlign=middle;whiteSpace=wrap;rounded=0;fontSize=8;fontColor=#A3A3A3;fontStyle=0" parent="1" vertex="1">
          <mxGeometry x="575" y="1188" width="40" height="30" as="geometry" />
        </mxCell>
        <mxCell id="KmkTRFpb8Al42wT6mUvf-23" value="CTRL" style="text;html=1;strokeColor=none;fillColor=none;align=center;verticalAlign=middle;whiteSpace=wrap;rounded=0;fontSize=8;fontColor=#A3A3A3;fontStyle=0" parent="1" vertex="1">
          <mxGeometry x="530" y="1183" width="40" height="30" as="geometry" />
        </mxCell>
        <mxCell id="KmkTRFpb8Al42wT6mUvf-24" value="SHIFT" style="text;html=1;strokeColor=none;fillColor=none;align=center;verticalAlign=middle;whiteSpace=wrap;rounded=0;fontSize=8;fontColor=#A3A3A3;fontStyle=0" parent="1" vertex="1">
          <mxGeometry x="485" y="1188" width="40" height="30" as="geometry" />
        </mxCell>
        <mxCell id="HR6j5fSbUc3XfzlXhDWu-1" value="Q" style="rounded=1;whiteSpace=wrap;html=1;" parent="1" vertex="1">
          <mxGeometry x="73.5" y="350" width="40" height="40" as="geometry" />
        </mxCell>
        <mxCell id="HR6j5fSbUc3XfzlXhDWu-2" value="W" style="rounded=1;whiteSpace=wrap;html=1;" parent="1" vertex="1">
          <mxGeometry x="118.5" y="340" width="40" height="40" as="geometry" />
        </mxCell>
        <mxCell id="HR6j5fSbUc3XfzlXhDWu-3" value="E" style="rounded=1;whiteSpace=wrap;html=1;" parent="1" vertex="1">
          <mxGeometry x="163.5" y="335" width="40" height="40" as="geometry" />
        </mxCell>
        <mxCell id="HR6j5fSbUc3XfzlXhDWu-4" value="R" style="rounded=1;whiteSpace=wrap;html=1;" parent="1" vertex="1">
          <mxGeometry x="208.5" y="340" width="40" height="40" as="geometry" />
        </mxCell>
        <mxCell id="HR6j5fSbUc3XfzlXhDWu-5" value="T" style="rounded=1;whiteSpace=wrap;html=1;" parent="1" vertex="1">
          <mxGeometry x="253.5" y="350" width="40" height="40" as="geometry" />
        </mxCell>
        <mxCell id="HR6j5fSbUc3XfzlXhDWu-6" value="A" style="rounded=1;whiteSpace=wrap;html=1;" parent="1" vertex="1">
          <mxGeometry x="73.5" y="395" width="40" height="40" as="geometry" />
        </mxCell>
        <mxCell id="HR6j5fSbUc3XfzlXhDWu-7" value="S" style="rounded=1;whiteSpace=wrap;html=1;" parent="1" vertex="1">
          <mxGeometry x="118.5" y="385" width="40" height="40" as="geometry" />
        </mxCell>
        <mxCell id="HR6j5fSbUc3XfzlXhDWu-8" value="D" style="rounded=1;whiteSpace=wrap;html=1;" parent="1" vertex="1">
          <mxGeometry x="163.5" y="380" width="40" height="40" as="geometry" />
        </mxCell>
        <mxCell id="HR6j5fSbUc3XfzlXhDWu-9" value="F" style="rounded=1;whiteSpace=wrap;html=1;" parent="1" vertex="1">
          <mxGeometry x="208.5" y="385" width="40" height="40" as="geometry" />
        </mxCell>
        <mxCell id="HR6j5fSbUc3XfzlXhDWu-10" value="G" style="rounded=1;whiteSpace=wrap;html=1;" parent="1" vertex="1">
          <mxGeometry x="253.5" y="395" width="40" height="40" as="geometry" />
        </mxCell>
        <mxCell id="HR6j5fSbUc3XfzlXhDWu-11" value="Y" style="rounded=1;whiteSpace=wrap;html=1;" parent="1" vertex="1">
          <mxGeometry x="73.5" y="440" width="40" height="40" as="geometry" />
        </mxCell>
        <mxCell id="HR6j5fSbUc3XfzlXhDWu-12" value="X" style="rounded=1;whiteSpace=wrap;html=1;" parent="1" vertex="1">
          <mxGeometry x="118.5" y="430" width="40" height="40" as="geometry" />
        </mxCell>
        <mxCell id="HR6j5fSbUc3XfzlXhDWu-13" value="C" style="rounded=1;whiteSpace=wrap;html=1;" parent="1" vertex="1">
          <mxGeometry x="163.5" y="425" width="40" height="40" as="geometry" />
        </mxCell>
        <mxCell id="HR6j5fSbUc3XfzlXhDWu-14" value="V" style="rounded=1;whiteSpace=wrap;html=1;" parent="1" vertex="1">
          <mxGeometry x="208.5" y="430" width="40" height="40" as="geometry" />
        </mxCell>
        <mxCell id="HR6j5fSbUc3XfzlXhDWu-15" value="B" style="rounded=1;whiteSpace=wrap;html=1;" parent="1" vertex="1">
          <mxGeometry x="253.5" y="440" width="40" height="40" as="geometry" />
        </mxCell>
        <mxCell id="HR6j5fSbUc3XfzlXhDWu-16" value="ESC" style="rounded=1;whiteSpace=wrap;html=1;" parent="1" vertex="1">
          <mxGeometry x="178.5" y="480" width="40" height="40" as="geometry" />
        </mxCell>
        <mxCell id="HR6j5fSbUc3XfzlXhDWu-17" value="&lt;font style=&quot;font-size: 11px;&quot;&gt;SPACE&lt;/font&gt;" style="rounded=1;whiteSpace=wrap;html=1;rotation=10;fillColor=#dae8fc;strokeColor=#6c8ebf;" parent="1" vertex="1">
          <mxGeometry x="228.5" y="485" width="40" height="40" as="geometry" />
        </mxCell>
        <mxCell id="HR6j5fSbUc3XfzlXhDWu-18" value="TAB" style="rounded=1;whiteSpace=wrap;html=1;direction=south;rotation=15;fillColor=#d5e8d4;strokeColor=#82b366;" parent="1" vertex="1">
          <mxGeometry x="273.5" y="495" width="40" height="40" as="geometry" />
        </mxCell>
        <mxCell id="HR6j5fSbUc3XfzlXhDWu-19" value="Z" style="rounded=1;whiteSpace=wrap;html=1;" parent="1" vertex="1">
          <mxGeometry x="486.5" y="350" width="40" height="40" as="geometry" />
        </mxCell>
        <mxCell id="HR6j5fSbUc3XfzlXhDWu-20" value="U" style="rounded=1;whiteSpace=wrap;html=1;" parent="1" vertex="1">
          <mxGeometry x="531.5" y="340" width="40" height="40" as="geometry" />
        </mxCell>
        <mxCell id="HR6j5fSbUc3XfzlXhDWu-21" value="I" style="rounded=1;whiteSpace=wrap;html=1;" parent="1" vertex="1">
          <mxGeometry x="576.5" y="335" width="40" height="40" as="geometry" />
        </mxCell>
        <mxCell id="HR6j5fSbUc3XfzlXhDWu-22" value="O" style="rounded=1;whiteSpace=wrap;html=1;" parent="1" vertex="1">
          <mxGeometry x="621.5" y="340" width="40" height="40" as="geometry" />
        </mxCell>
        <mxCell id="HR6j5fSbUc3XfzlXhDWu-23" value="P" style="rounded=1;whiteSpace=wrap;html=1;" parent="1" vertex="1">
          <mxGeometry x="666.5" y="350" width="40" height="40" as="geometry" />
        </mxCell>
        <mxCell id="HR6j5fSbUc3XfzlXhDWu-24" value="H" style="rounded=1;whiteSpace=wrap;html=1;" parent="1" vertex="1">
          <mxGeometry x="486.5" y="395" width="40" height="40" as="geometry" />
        </mxCell>
        <mxCell id="HR6j5fSbUc3XfzlXhDWu-25" value="J" style="rounded=1;whiteSpace=wrap;html=1;" parent="1" vertex="1">
          <mxGeometry x="531.5" y="385" width="40" height="40" as="geometry" />
        </mxCell>
        <mxCell id="HR6j5fSbUc3XfzlXhDWu-26" value="K" style="rounded=1;whiteSpace=wrap;html=1;" parent="1" vertex="1">
          <mxGeometry x="576.5" y="380" width="40" height="40" as="geometry" />
        </mxCell>
        <mxCell id="HR6j5fSbUc3XfzlXhDWu-27" value="L" style="rounded=1;whiteSpace=wrap;html=1;" parent="1" vertex="1">
          <mxGeometry x="621.5" y="385" width="40" height="40" as="geometry" />
        </mxCell>
        <mxCell id="HR6j5fSbUc3XfzlXhDWu-28" value="ö" style="rounded=1;whiteSpace=wrap;html=1;" parent="1" vertex="1">
          <mxGeometry x="666.5" y="395" width="40" height="40" as="geometry" />
        </mxCell>
        <mxCell id="HR6j5fSbUc3XfzlXhDWu-29" value="N" style="rounded=1;whiteSpace=wrap;html=1;" parent="1" vertex="1">
          <mxGeometry x="486.5" y="440" width="40" height="40" as="geometry" />
        </mxCell>
        <mxCell id="HR6j5fSbUc3XfzlXhDWu-30" value="M" style="rounded=1;whiteSpace=wrap;html=1;" parent="1" vertex="1">
          <mxGeometry x="531.5" y="430" width="40" height="40" as="geometry" />
        </mxCell>
        <mxCell id="HR6j5fSbUc3XfzlXhDWu-31" value=";&lt;br&gt;," style="rounded=1;whiteSpace=wrap;html=1;" parent="1" vertex="1">
          <mxGeometry x="576.5" y="425" width="40" height="40" as="geometry" />
        </mxCell>
        <mxCell id="HR6j5fSbUc3XfzlXhDWu-32" value=":&lt;br&gt;." style="rounded=1;whiteSpace=wrap;html=1;" parent="1" vertex="1">
          <mxGeometry x="621.5" y="430" width="40" height="40" as="geometry" />
        </mxCell>
        <mxCell id="HR6j5fSbUc3XfzlXhDWu-33" value="_&lt;br&gt;-&lt;br&gt;" style="rounded=1;whiteSpace=wrap;html=1;" parent="1" vertex="1">
          <mxGeometry x="666.5" y="440" width="40" height="40" as="geometry" />
        </mxCell>
        <mxCell id="HR6j5fSbUc3XfzlXhDWu-34" value="DEL" style="rounded=1;whiteSpace=wrap;html=1;" parent="1" vertex="1">
          <mxGeometry x="561.5" y="480" width="40" height="40" as="geometry" />
        </mxCell>
        <mxCell id="HR6j5fSbUc3XfzlXhDWu-35" value="&lt;font style=&quot;font-size: 15px;&quot;&gt;&lt;b&gt;←&lt;/b&gt;&lt;/font&gt;" style="rounded=1;whiteSpace=wrap;html=1;rotation=-10;fillColor=#ffe6cc;strokeColor=#d79b00;" parent="1" vertex="1">
          <mxGeometry x="511.5" y="485" width="40" height="40" as="geometry" />
        </mxCell>
        <mxCell id="HR6j5fSbUc3XfzlXhDWu-36" value="&lt;font style=&quot;font-size: 11px;&quot;&gt;ENTER&lt;/font&gt;" style="rounded=1;whiteSpace=wrap;html=1;direction=south;rotation=-15;fillColor=#f8cecc;strokeColor=#b85450;" parent="1" vertex="1">
          <mxGeometry x="466.5" y="495" width="40" height="40" as="geometry" />
        </mxCell>
        <mxCell id="HR6j5fSbUc3XfzlXhDWu-40" value="ü" style="rounded=1;whiteSpace=wrap;html=1;" parent="1" vertex="1">
          <mxGeometry x="711.5" y="350" width="40" height="40" as="geometry" />
        </mxCell>
        <mxCell id="HR6j5fSbUc3XfzlXhDWu-41" value="ä" style="rounded=1;whiteSpace=wrap;html=1;" parent="1" vertex="1">
          <mxGeometry x="711.5" y="395" width="40" height="40" as="geometry" />
        </mxCell>
        <mxCell id="HR6j5fSbUc3XfzlXhDWu-152" value="&lt;font color=&quot;#7ea6e0&quot; style=&quot;font-size: 9px;&quot;&gt;symbols&lt;/font&gt;" style="text;html=1;strokeColor=none;fillColor=none;align=center;verticalAlign=middle;whiteSpace=wrap;rounded=0;rotation=10;" parent="1" vertex="1">
          <mxGeometry x="196.5" y="514" width="95" height="30" as="geometry" />
        </mxCell>
        <mxCell id="HR6j5fSbUc3XfzlXhDWu-153" value="&lt;p style=&quot;line-height: 90%;&quot;&gt;&lt;font color=&quot;#ffb570&quot; style=&quot;font-size: 9px;&quot;&gt;numbers &amp;amp;&lt;br&gt;calculations&lt;br&gt;&lt;/font&gt;&lt;/p&gt;" style="text;html=1;strokeColor=none;fillColor=none;align=center;verticalAlign=middle;whiteSpace=wrap;rounded=0;rotation=-10;spacing=1;" parent="1" vertex="1">
          <mxGeometry x="490.5" y="520" width="95" height="30" as="geometry" />
        </mxCell>
        <mxCell id="HR6j5fSbUc3XfzlXhDWu-191" value="&lt;p style=&quot;line-height: 90%;&quot;&gt;&lt;font style=&quot;font-size: 9px;&quot;&gt;F keys&lt;br&gt;&amp;amp; co&lt;br&gt;&lt;/font&gt;&lt;/p&gt;" style="text;html=1;strokeColor=none;fillColor=none;align=center;verticalAlign=middle;whiteSpace=wrap;rounded=0;rotation=-15;spacing=1;fontColor=#EA6B66;" parent="1" vertex="1">
          <mxGeometry x="446.5" y="530" width="95" height="30" as="geometry" />
        </mxCell>
        <mxCell id="KmkTRFpb8Al42wT6mUvf-1" value="WIN" style="text;html=1;strokeColor=none;fillColor=none;align=center;verticalAlign=middle;whiteSpace=wrap;rounded=0;fontSize=8;fontColor=#A3A3A3;fontStyle=0" parent="1" vertex="1">
          <mxGeometry x="73.5" y="413" width="40" height="30" as="geometry" />
        </mxCell>
        <mxCell id="KmkTRFpb8Al42wT6mUvf-2" value="ALT" style="text;html=1;strokeColor=none;fillColor=none;align=center;verticalAlign=middle;whiteSpace=wrap;rounded=0;fontSize=8;fontColor=#A3A3A3;fontStyle=0" parent="1" vertex="1">
          <mxGeometry x="118.5" y="403" width="40" height="30" as="geometry" />
        </mxCell>
        <mxCell id="KmkTRFpb8Al42wT6mUvf-3" value="CTRL" style="text;html=1;strokeColor=none;fillColor=none;align=center;verticalAlign=middle;whiteSpace=wrap;rounded=0;fontSize=8;fontColor=#A3A3A3;fontStyle=0" parent="1" vertex="1">
          <mxGeometry x="163.5" y="398" width="40" height="30" as="geometry" />
        </mxCell>
        <mxCell id="KmkTRFpb8Al42wT6mUvf-4" value="SHIFT" style="text;html=1;strokeColor=none;fillColor=none;align=center;verticalAlign=middle;whiteSpace=wrap;rounded=0;fontSize=8;fontColor=#A3A3A3;fontStyle=0" parent="1" vertex="1">
          <mxGeometry x="208.5" y="403" width="40" height="30" as="geometry" />
        </mxCell>
        <mxCell id="KmkTRFpb8Al42wT6mUvf-5" value="WIN" style="text;html=1;strokeColor=none;fillColor=none;align=center;verticalAlign=middle;whiteSpace=wrap;rounded=0;fontSize=8;fontColor=#A3A3A3;fontStyle=0" parent="1" vertex="1">
          <mxGeometry x="666.5" y="413" width="40" height="30" as="geometry" />
        </mxCell>
        <mxCell id="KmkTRFpb8Al42wT6mUvf-6" value="ALT" style="text;html=1;strokeColor=none;fillColor=none;align=center;verticalAlign=middle;whiteSpace=wrap;rounded=0;fontSize=8;fontColor=#A3A3A3;fontStyle=0" parent="1" vertex="1">
          <mxGeometry x="621.5" y="403" width="40" height="30" as="geometry" />
        </mxCell>
        <mxCell id="KmkTRFpb8Al42wT6mUvf-7" value="CTRL" style="text;html=1;strokeColor=none;fillColor=none;align=center;verticalAlign=middle;whiteSpace=wrap;rounded=0;fontSize=8;fontColor=#A3A3A3;fontStyle=0" parent="1" vertex="1">
          <mxGeometry x="576.5" y="398" width="40" height="30" as="geometry" />
        </mxCell>
        <mxCell id="KmkTRFpb8Al42wT6mUvf-8" value="SHIFT" style="text;html=1;strokeColor=none;fillColor=none;align=center;verticalAlign=middle;whiteSpace=wrap;rounded=0;fontSize=8;fontColor=#A3A3A3;fontStyle=0" parent="1" vertex="1">
          <mxGeometry x="531.5" y="403" width="40" height="30" as="geometry" />
        </mxCell>
        <mxCell id="AvlZlL0ac7L6XK9xm6jw-1" value="1" style="rounded=1;whiteSpace=wrap;html=1;fillColor=#CCCCCC;fontColor=#333333;strokeColor=#666666;" parent="1" vertex="1">
          <mxGeometry x="73.5" y="305" width="40" height="40" as="geometry" />
        </mxCell>
        <mxCell id="AvlZlL0ac7L6XK9xm6jw-2" value="2" style="rounded=1;whiteSpace=wrap;html=1;fillColor=#CCCCCC;fontColor=#333333;strokeColor=#666666;" parent="1" vertex="1">
          <mxGeometry x="118.5" y="295" width="40" height="40" as="geometry" />
        </mxCell>
        <mxCell id="AvlZlL0ac7L6XK9xm6jw-3" value="3" style="rounded=1;whiteSpace=wrap;html=1;fillColor=#CCCCCC;fontColor=#333333;strokeColor=#666666;" parent="1" vertex="1">
          <mxGeometry x="163.5" y="290" width="40" height="40" as="geometry" />
        </mxCell>
        <mxCell id="AvlZlL0ac7L6XK9xm6jw-4" value="4" style="rounded=1;whiteSpace=wrap;html=1;fillColor=#CCCCCC;fontColor=#333333;strokeColor=#666666;" parent="1" vertex="1">
          <mxGeometry x="208.5" y="295" width="40" height="40" as="geometry" />
        </mxCell>
        <mxCell id="AvlZlL0ac7L6XK9xm6jw-5" value="5" style="rounded=1;whiteSpace=wrap;html=1;fillColor=#CCCCCC;fontColor=#333333;strokeColor=#666666;" parent="1" vertex="1">
          <mxGeometry x="253.5" y="305" width="40" height="40" as="geometry" />
        </mxCell>
        <mxCell id="AvlZlL0ac7L6XK9xm6jw-6" value="" style="rounded=1;whiteSpace=wrap;html=1;fillColor=#CCCCCC;fontColor=#333333;strokeColor=#666666;" parent="1" vertex="1">
          <mxGeometry x="28.5" y="350" width="40" height="40" as="geometry" />
        </mxCell>
        <mxCell id="AvlZlL0ac7L6XK9xm6jw-7" value="" style="rounded=1;whiteSpace=wrap;html=1;fillColor=#CCCCCC;fontColor=#333333;strokeColor=#666666;" parent="1" vertex="1">
          <mxGeometry x="28.5" y="395" width="40" height="40" as="geometry" />
        </mxCell>
        <mxCell id="AvlZlL0ac7L6XK9xm6jw-8" value="" style="rounded=1;whiteSpace=wrap;html=1;fillColor=#CCCCCC;fontColor=#333333;strokeColor=#666666;" parent="1" vertex="1">
          <mxGeometry x="28.5" y="440" width="40" height="40" as="geometry" />
        </mxCell>
        <mxCell id="AvlZlL0ac7L6XK9xm6jw-10" value="ESC" style="rounded=1;whiteSpace=wrap;html=1;fillColor=#CCCCCC;fontColor=#333333;strokeColor=#666666;" parent="1" vertex="1">
          <mxGeometry x="28.5" y="305" width="40" height="40" as="geometry" />
        </mxCell>
        <mxCell id="AvlZlL0ac7L6XK9xm6jw-11" value="" style="rounded=1;whiteSpace=wrap;html=1;fillColor=#CCCCCC;fontColor=#333333;strokeColor=#666666;" parent="1" vertex="1">
          <mxGeometry x="73.5" y="485" width="40" height="40" as="geometry" />
        </mxCell>
        <mxCell id="AvlZlL0ac7L6XK9xm6jw-12" value="" style="rounded=1;whiteSpace=wrap;html=1;fillColor=#CCCCCC;fontColor=#333333;strokeColor=#666666;" parent="1" vertex="1">
          <mxGeometry x="118.5" y="475" width="40" height="40" as="geometry" />
        </mxCell>
        <mxCell id="AvlZlL0ac7L6XK9xm6jw-13" value="" style="rounded=1;whiteSpace=wrap;html=1;fillColor=#CCCCCC;fontColor=#333333;strokeColor=#666666;" parent="1" vertex="1">
          <mxGeometry x="28.5" y="485" width="40" height="40" as="geometry" />
        </mxCell>
        <mxCell id="AvlZlL0ac7L6XK9xm6jw-18" value="6" style="rounded=1;whiteSpace=wrap;html=1;fillColor=#CCCCCC;fontColor=#333333;strokeColor=#666666;" parent="1" vertex="1">
          <mxGeometry x="486.5" y="305" width="40" height="40" as="geometry" />
        </mxCell>
        <mxCell id="AvlZlL0ac7L6XK9xm6jw-19" value="7" style="rounded=1;whiteSpace=wrap;html=1;fillColor=#CCCCCC;fontColor=#333333;strokeColor=#666666;" parent="1" vertex="1">
          <mxGeometry x="531.5" y="295" width="40" height="40" as="geometry" />
        </mxCell>
        <mxCell id="AvlZlL0ac7L6XK9xm6jw-20" value="8" style="rounded=1;whiteSpace=wrap;html=1;fillColor=#CCCCCC;fontColor=#333333;strokeColor=#666666;" parent="1" vertex="1">
          <mxGeometry x="576.5" y="290" width="40" height="40" as="geometry" />
        </mxCell>
        <mxCell id="AvlZlL0ac7L6XK9xm6jw-21" value="9" style="rounded=1;whiteSpace=wrap;html=1;fillColor=#CCCCCC;fontColor=#333333;strokeColor=#666666;" parent="1" vertex="1">
          <mxGeometry x="621.5" y="295" width="40" height="40" as="geometry" />
        </mxCell>
        <mxCell id="AvlZlL0ac7L6XK9xm6jw-22" value="0" style="rounded=1;whiteSpace=wrap;html=1;fillColor=#CCCCCC;fontColor=#333333;strokeColor=#666666;" parent="1" vertex="1">
          <mxGeometry x="666.5" y="305" width="40" height="40" as="geometry" />
        </mxCell>
        <mxCell id="AvlZlL0ac7L6XK9xm6jw-23" value="" style="rounded=1;whiteSpace=wrap;html=1;fillColor=#CCCCCC;fontColor=#333333;strokeColor=#666666;" parent="1" vertex="1">
          <mxGeometry x="711.5" y="305" width="40" height="40" as="geometry" />
        </mxCell>
        <mxCell id="AvlZlL0ac7L6XK9xm6jw-24" value="" style="rounded=1;whiteSpace=wrap;html=1;fillColor=#CCCCCC;fontColor=#333333;strokeColor=#666666;" parent="1" vertex="1">
          <mxGeometry x="711.5" y="440" width="40" height="40" as="geometry" />
        </mxCell>
        <mxCell id="AvlZlL0ac7L6XK9xm6jw-26" value="" style="shape=image;verticalLabelPosition=bottom;labelBackgroundColor=default;verticalAlign=top;aspect=fixed;imageAspect=0;image=data:image/svg+xml,PHN2ZyB4bWxucz0iaHR0cDovL3d3dy53My5vcmcvMjAwMC9zdmciIHhtbDpzcGFjZT0icHJlc2VydmUiIGlkPSJzdmcxIiB2ZXJzaW9uPSIxLjEiIHZpZXdCb3g9IjAgMCA0MC4xNjYzNzggMjYuMjkwMTE5IiBoZWlnaHQ9IjI2LjI5MDExOW1tIiB3aWR0aD0iNDAuMTY2Mzc4bW0iPjxkZWZzIGlkPSJkZWZzMSIvPjxnIHRyYW5zZm9ybT0idHJhbnNsYXRlKC0xLjE3ODg1OTMsLTEuNzY4MDczMykiIGlkPSJsYXllcjEiPjxwYXRoIGlkPSJwYXRoMSIgZD0ibSAxLjk2NTY1MTEsMjcuNDkyODE2IC0wLjcxNzk0MSwtMC42NDEzNzUgLTAuMDU4MTIsLTExLjYzMTY2OSBjIC0wLjAzNjE0LC03LjIzMTgxNDYgMC4wMjAzNCwtMTEuODM4MDM1NiAwLjE0OTMwMiwtMTIuMTc3MjI5NiAwLjExNDA4MiwtMC4zMDAwNTkgMC40NjIxNTQsLTAuNzEyNDY4IDAuNzczNDkyLC0wLjkxNjQ2NSAxLjIwODE1NSwtMC43OTE2MTMgMS40MjIwOTIsLTAuNjg3MzY2IDkuNzUwOTUwOSw0Ljc1MTQzIDQuMzE0MzI5LDIuODE3MjgzIDcuOTA1NTc5LDUuMTIyMzMyNiA3Ljk4MDU1NCw1LjEyMjMzMjYgMC4wNzQ5OCwwIDAuMTM2ODUxLC0xLjc4NTkzNyAwLjEzNzUsLTMuOTY4NzQ5NiAwLjAwMTMsLTQuMzM0NDE1IDAuMTYzODksLTUuMzM4MzQxIDAuOTQ3ODEzLC01Ljg1MTk4NyAxLjI0OTQzMSwtMC44MTg2NTkgMS40MjMxNjcsLTAuNzMxNzY0IDEwLjk4ODYzNiw1LjQ5NjA1MiA1Ljk5OTMxOSwzLjkwNTk5MjYgOS4wNDE2NSw2LjAwODc3NTYgOS4yMDE2NTksNi4zNTk5NTg2IDAuMzY1ODI3LDAuODAyOTAyIDAuMjg3MTk4LDEuNDg2NTY5IC0wLjIzNzIwNSwyLjA2MjQ3OCAtMC41OTg3OTcsMC42NTc2MDggLTE3LjYzMDY2MSwxMS43NDQ5ODIgLTE4LjMwMDE4MiwxMS45MTMwMjEgLTAuNjY5MTUxLDAuMTY3OTQ2IC0xLjcxMDk3NiwtMC4yOTQ5NzkgLTIuMTQyMDQ3LC0wLjk1MTggLTAuMjkyNDAzLC0wLjQ0NTUzMSAtMC4zNzI0NDEsLTEuMzA3NTcgLTAuNDU5ODU0LC00Ljk1Mjc2MiBsIC0wLjEwNTgzMywtNC40MTMzNDUgLTcuODMxNjY3LDUuMTE2MTMyIGMgLTUuNDk3NzU5OSwzLjU5MTQ3OSAtOC4wNTkyNjI5LDUuMTQ3MzA3IC04LjU5NTM5MTksNS4yMjA3NDMgLTAuNjMzMjU3LDAuMDg2NzQgLTAuODg2MzczLC0wLjAwNSAtMS40ODE2NjYsLTAuNTM2NzY1IHoiIHN0eWxlPSJmaWxsOiMwMDAwMDAiLz48L2c+PC9zdmc+;" parent="1" vertex="1">
          <mxGeometry x="128.88" y="488.75" width="19.23" height="12.5" as="geometry" />
        </mxCell>
        <mxCell id="AvlZlL0ac7L6XK9xm6jw-27" value="" style="shape=image;verticalLabelPosition=bottom;labelBackgroundColor=default;verticalAlign=top;aspect=fixed;imageAspect=0;image=data:image/svg+xml,PHN2ZyB4bWxucz0iaHR0cDovL3d3dy53My5vcmcvMjAwMC9zdmciIHhtbDpzcGFjZT0icHJlc2VydmUiIGlkPSJzdmcxIiB2ZXJzaW9uPSIxLjEiIHZpZXdCb3g9IjAgMCA0MC4xNjYzNzggMjYuMjkwMTE5IiBoZWlnaHQ9IjI2LjI5MDExOW1tIiB3aWR0aD0iNDAuMTY2Mzc4bW0iPjxkZWZzIGlkPSJkZWZzMSIvPjxnIHRyYW5zZm9ybT0idHJhbnNsYXRlKC0xLjE3ODg1OTMsLTEuNzY4MDczMykiIGlkPSJsYXllcjEiPjxwYXRoIGlkPSJwYXRoMSIgZD0ibSAxLjk2NTY1MTEsMjcuNDkyODE2IC0wLjcxNzk0MSwtMC42NDEzNzUgLTAuMDU4MTIsLTExLjYzMTY2OSBjIC0wLjAzNjE0LC03LjIzMTgxNDYgMC4wMjAzNCwtMTEuODM4MDM1NiAwLjE0OTMwMiwtMTIuMTc3MjI5NiAwLjExNDA4MiwtMC4zMDAwNTkgMC40NjIxNTQsLTAuNzEyNDY4IDAuNzczNDkyLC0wLjkxNjQ2NSAxLjIwODE1NSwtMC43OTE2MTMgMS40MjIwOTIsLTAuNjg3MzY2IDkuNzUwOTUwOSw0Ljc1MTQzIDQuMzE0MzI5LDIuODE3MjgzIDcuOTA1NTc5LDUuMTIyMzMyNiA3Ljk4MDU1NCw1LjEyMjMzMjYgMC4wNzQ5OCwwIDAuMTM2ODUxLC0xLjc4NTkzNyAwLjEzNzUsLTMuOTY4NzQ5NiAwLjAwMTMsLTQuMzM0NDE1IDAuMTYzODksLTUuMzM4MzQxIDAuOTQ3ODEzLC01Ljg1MTk4NyAxLjI0OTQzMSwtMC44MTg2NTkgMS40MjMxNjcsLTAuNzMxNzY0IDEwLjk4ODYzNiw1LjQ5NjA1MiA1Ljk5OTMxOSwzLjkwNTk5MjYgOS4wNDE2NSw2LjAwODc3NTYgOS4yMDE2NTksNi4zNTk5NTg2IDAuMzY1ODI3LDAuODAyOTAyIDAuMjg3MTk4LDEuNDg2NTY5IC0wLjIzNzIwNSwyLjA2MjQ3OCAtMC41OTg3OTcsMC42NTc2MDggLTE3LjYzMDY2MSwxMS43NDQ5ODIgLTE4LjMwMDE4MiwxMS45MTMwMjEgLTAuNjY5MTUxLDAuMTY3OTQ2IC0xLjcxMDk3NiwtMC4yOTQ5NzkgLTIuMTQyMDQ3LC0wLjk1MTggLTAuMjkyNDAzLC0wLjQ0NTUzMSAtMC4zNzI0NDEsLTEuMzA3NTcgLTAuNDU5ODU0LC00Ljk1Mjc2MiBsIC0wLjEwNTgzMywtNC40MTMzNDUgLTcuODMxNjY3LDUuMTE2MTMyIGMgLTUuNDk3NzU5OSwzLjU5MTQ3OSAtOC4wNTkyNjI5LDUuMTQ3MzA3IC04LjU5NTM5MTksNS4yMjA3NDMgLTAuNjMzMjU3LDAuMDg2NzQgLTAuODg2MzczLC0wLjAwNSAtMS40ODE2NjYsLTAuNTM2NzY1IHoiIHN0eWxlPSJmaWxsOiMwMDAwMDAiLz48L2c+PC9zdmc+;rotation=-180;" parent="1" vertex="1">
          <mxGeometry x="38.89" y="498.79" width="19.23" height="12.5" as="geometry" />
        </mxCell>
        <mxCell id="AvlZlL0ac7L6XK9xm6jw-28" value="" style="shape=image;verticalLabelPosition=bottom;labelBackgroundColor=default;verticalAlign=top;aspect=fixed;imageAspect=0;image=data:image/svg+xml,PHN2ZyB4bWxucz0iaHR0cDovL3d3dy53My5vcmcvMjAwMC9zdmciIHhtbDpzcGFjZT0icHJlc2VydmUiIGlkPSJzdmcxIiB2ZXJzaW9uPSIxLjEiIHZpZXdCb3g9IjAgMCA3NS42NDY0MzkgNDYuMzIxNTU2IiBoZWlnaHQ9IjQ2LjMyMTU1Nm1tIiB3aWR0aD0iNzUuNjQ2NDM5bW0iPjxkZWZzIGlkPSJkZWZzMSIvPjxnIHRyYW5zZm9ybT0idHJhbnNsYXRlKDEuNTUwNDU3NSw3LjcwOTQ2NCkiIGlkPSJsYXllcjEiPjxwYXRoIGlkPSJwYXRoMSIgZD0ibSAwLjMwMjczOTksMzguMjk5NDgxIGMgLTAuMzQ5NzcsLTAuMTg0ODM3IC0wLjg4NTU1LC0wLjY3MjE2IC0xLjE5MDYyLC0xLjA4MjkzOSAtMC41NTA3MSwtMC43NDE1MzYgLTAuNTU1MTksLTAuODk2MzE4IC0wLjYyNzA1LC0yMS42NjY2MTQgLTAuMDgwNCwtMjMuMjM0MDc2IC0wLjE4NjI0LC0yMS44MTEzNzQgMS42ODA4NCwtMjIuNTkxNDkyIDEuNDkyMSwtMC42MjM0NCAyLjc1NTM2LC0wLjExMzQ4NiA2LjQ3MDI3LDIuNjExOTIgMS44MTQwOSwxLjMzMDg5MyA4LjAwMTMyMDEsNS44NDEyNzYgMTMuNzQ5MzkwMSwxMC4wMjMwNzQgNS43NDgwNyw0LjE4MTc5OCAxMC44OTc1Myw4LjAyNjMyNyAxMS40NDMyMyw4LjU0MzM5NyAxLjE1MzAyLDEuMDkyNTE5IDEuMzAwMDQsMi4xNTE4MDcgMC40ODQzMywzLjQ4OTU0MSAtMC4zMDkwOSwwLjUwNjg5NyAtMi40OTU4MywyLjIxMzY0OCAtNS42MjE0MSw0LjM4NzUwNSBDIDEwLjQ5MjY3LDMzLjI4MDQxNyA0LjI5MTAyOTksMzcuNTQ0MzQ5IDMuNTc1Mzg5OSwzNy45MDc1IGMgLTEuMjEwNjMsMC42MTQzMjIgLTIuNTQ4NjQsMC43NzQ1ODIgLTMuMjcyNjUsMC4zOTE5ODEgeiBNIDQxLjY0ODY5LDM4LjMyNDAxMSBDIDQwLjMzMzYzLDM3LjY2NzM2MiA0MC4zNjE2MSwzOC4xNjg0MjEgNDAuMzYxNjEsMTUuMjc5NyBWIC02LjEzMzE2MiBsIDAuODgyMTIsLTAuNzg4MTUxIDAuODgyMTIsLTAuNzg4MTUxIDQuODk2MDQsMC4wODIyNyA0Ljg5NjAzLDAuMDgyMjcgMC42Mzc5OSwwLjc0MjM1OCAwLjYzNzk5LDAuNzQyMzU4IHYgMjEuNTM0MDMzIDIxLjUzNDAzMyBsIC0wLjYzNzk5LDAuNzQyMzU4IC0wLjYzNzk5LDAuNzQyMzU5IC00Ljg1MjExLDAuMDU2NzggYyAtMy4wMjI0OCwwLjAzNTM3IC01LjA2NTE3LC0wLjA0OTYxIC01LjQxNzEyLC0wLjIyNTM0NCB6IG0gMjEuMTY0NjcsMC4wMzg1MSBDIDYxLjMzMzE1LDM3Ljc2NTE3OCA2MS4zOTU5OSwzOC43ODE4MjcgNjEuMzk1OTksMTUuNDI5NzEzIFYgLTYuMDYwMjAyIGwgMC42Mzc5OCwtMC43NDIzNTkgMC42Mzc5OSwtMC43NDIzNTggNC44NzkwMSwtMC4wODIwOSA0Ljg3OTAxLC0wLjA4MjA5IDAuODMzLDAuNzAwOTI0IDAuODMzLDAuNzAwOTI0IHYgMjEuNzgxMDg1IDIxLjc4MTA4NSBsIC0wLjgxNDA1LDAuNjg0OTc4IGMgLTAuODA4NiwwLjY4MDM5NiAtMC44NDQ0NCwwLjY4NDg2NiAtNS4zNTc4MSwwLjY2ODIwNyAtMi40OTkwNywtMC4wMDkyIC00Ljc5ODkxLC0wLjExOTczNyAtNS4xMTA3NiwtMC4yNDU1ODMgeiIgc3R5bGU9ImZpbGw6IzAwMDAwMCIvPjwvZz48L3N2Zz4=;" parent="1" vertex="1">
          <mxGeometry x="83.25" y="498.79" width="20.5" height="12.41" as="geometry" />
        </mxCell>
        <mxCell id="AvlZlL0ac7L6XK9xm6jw-29" value="" style="rounded=1;whiteSpace=wrap;html=1;fillColor=#CCCCCC;fontColor=#333333;strokeColor=#666666;" parent="1" vertex="1">
          <mxGeometry x="621.5" y="475" width="40" height="40" as="geometry" />
        </mxCell>
        <mxCell id="AvlZlL0ac7L6XK9xm6jw-30" value="" style="rounded=1;whiteSpace=wrap;html=1;fillColor=#CCCCCC;fontColor=#333333;strokeColor=#666666;" parent="1" vertex="1">
          <mxGeometry x="666.5" y="485" width="40" height="40" as="geometry" />
        </mxCell>
        <mxCell id="AvlZlL0ac7L6XK9xm6jw-31" value="" style="rounded=1;whiteSpace=wrap;html=1;fillColor=#CCCCCC;fontColor=#333333;strokeColor=#666666;" parent="1" vertex="1">
          <mxGeometry x="711.5" y="485" width="40" height="40" as="geometry" />
        </mxCell>
        <mxCell id="AvlZlL0ac7L6XK9xm6jw-32" value="" style="rounded=1;whiteSpace=wrap;html=1;direction=south;rotation=15;fillColor=#CCCCCC;strokeColor=#666666;fontColor=#333333;" parent="1" vertex="1">
          <mxGeometry x="316.5" y="507" width="40" height="40" as="geometry" />
        </mxCell>
        <mxCell id="AvlZlL0ac7L6XK9xm6jw-33" value="" style="rounded=1;whiteSpace=wrap;html=1;direction=south;rotation=-15;fillColor=#CCCCCC;strokeColor=#666666;fontColor=#333333;" parent="1" vertex="1">
          <mxGeometry x="423.5" y="508" width="40" height="40" as="geometry" />
        </mxCell>
        <mxCell id="HR6j5fSbUc3XfzlXhDWu-42" value="" style="rounded=1;whiteSpace=wrap;html=1;fillColor=#ffe6cc;strokeColor=#d79b00;" parent="1" vertex="1">
          <mxGeometry x="120" y="615" width="40" height="40" as="geometry" />
        </mxCell>
        <mxCell id="HR6j5fSbUc3XfzlXhDWu-43" value="7" style="rounded=1;whiteSpace=wrap;html=1;fillColor=#ffe6cc;strokeColor=#d79b00;" parent="1" vertex="1">
          <mxGeometry x="165" y="605" width="40" height="40" as="geometry" />
        </mxCell>
        <mxCell id="HR6j5fSbUc3XfzlXhDWu-44" value="8" style="rounded=1;whiteSpace=wrap;html=1;fillColor=#ffe6cc;strokeColor=#d79b00;" parent="1" vertex="1">
          <mxGeometry x="210" y="600" width="40" height="40" as="geometry" />
        </mxCell>
        <mxCell id="HR6j5fSbUc3XfzlXhDWu-45" value="9" style="rounded=1;whiteSpace=wrap;html=1;fillColor=#ffe6cc;strokeColor=#d79b00;" parent="1" vertex="1">
          <mxGeometry x="255" y="605" width="40" height="40" as="geometry" />
        </mxCell>
        <mxCell id="HR6j5fSbUc3XfzlXhDWu-46" value="" style="rounded=1;whiteSpace=wrap;html=1;fillColor=#ffe6cc;strokeColor=#d79b00;" parent="1" vertex="1">
          <mxGeometry x="300" y="615" width="40" height="40" as="geometry" />
        </mxCell>
        <mxCell id="HR6j5fSbUc3XfzlXhDWu-47" value="&lt;p style=&quot;line-height: 80%;&quot;&gt;&lt;font style=&quot;font-size: 10px;&quot;&gt;NUM&lt;br&gt;PAD&lt;/font&gt;&lt;/p&gt;" style="rounded=1;whiteSpace=wrap;html=1;fillColor=#ffe6cc;strokeColor=#d79b00;" parent="1" vertex="1">
          <mxGeometry x="120" y="660" width="40" height="40" as="geometry" />
        </mxCell>
        <mxCell id="HR6j5fSbUc3XfzlXhDWu-48" value="4" style="rounded=1;whiteSpace=wrap;html=1;fillColor=#ffe6cc;strokeColor=#d79b00;" parent="1" vertex="1">
          <mxGeometry x="165" y="650" width="40" height="40" as="geometry" />
        </mxCell>
        <mxCell id="HR6j5fSbUc3XfzlXhDWu-49" value="5" style="rounded=1;whiteSpace=wrap;html=1;fillColor=#ffe6cc;strokeColor=#d79b00;" parent="1" vertex="1">
          <mxGeometry x="210" y="645" width="40" height="40" as="geometry" />
        </mxCell>
        <mxCell id="HR6j5fSbUc3XfzlXhDWu-50" value="6" style="rounded=1;whiteSpace=wrap;html=1;fillColor=#ffe6cc;strokeColor=#d79b00;" parent="1" vertex="1">
          <mxGeometry x="255" y="650" width="40" height="40" as="geometry" />
        </mxCell>
        <mxCell id="HR6j5fSbUc3XfzlXhDWu-51" value="" style="rounded=1;whiteSpace=wrap;html=1;fillColor=#ffe6cc;strokeColor=#d79b00;" parent="1" vertex="1">
          <mxGeometry x="300" y="660" width="40" height="40" as="geometry" />
        </mxCell>
        <mxCell id="HR6j5fSbUc3XfzlXhDWu-52" value="" style="rounded=1;whiteSpace=wrap;html=1;fillColor=#ffe6cc;strokeColor=#d79b00;" parent="1" vertex="1">
          <mxGeometry x="120" y="705" width="40" height="40" as="geometry" />
        </mxCell>
        <mxCell id="HR6j5fSbUc3XfzlXhDWu-53" value="1" style="rounded=1;whiteSpace=wrap;html=1;fillColor=#ffe6cc;strokeColor=#d79b00;" parent="1" vertex="1">
          <mxGeometry x="165" y="695" width="40" height="40" as="geometry" />
        </mxCell>
        <mxCell id="HR6j5fSbUc3XfzlXhDWu-54" value="2" style="rounded=1;whiteSpace=wrap;html=1;fillColor=#ffe6cc;strokeColor=#d79b00;" parent="1" vertex="1">
          <mxGeometry x="210" y="690" width="40" height="40" as="geometry" />
        </mxCell>
        <mxCell id="HR6j5fSbUc3XfzlXhDWu-55" value="3" style="rounded=1;whiteSpace=wrap;html=1;fillColor=#ffe6cc;strokeColor=#d79b00;" parent="1" vertex="1">
          <mxGeometry x="255" y="695" width="40" height="40" as="geometry" />
        </mxCell>
        <mxCell id="HR6j5fSbUc3XfzlXhDWu-56" value="" style="rounded=1;whiteSpace=wrap;html=1;fillColor=#ffe6cc;strokeColor=#d79b00;" parent="1" vertex="1">
          <mxGeometry x="300" y="705" width="40" height="40" as="geometry" />
        </mxCell>
        <mxCell id="HR6j5fSbUc3XfzlXhDWu-57" value="" style="rounded=1;whiteSpace=wrap;html=1;fillColor=#ffe6cc;strokeColor=#d79b00;" parent="1" vertex="1">
          <mxGeometry x="225" y="745" width="40" height="40" as="geometry" />
        </mxCell>
        <mxCell id="HR6j5fSbUc3XfzlXhDWu-58" value="0" style="rounded=1;whiteSpace=wrap;html=1;rotation=10;fillColor=#ffe6cc;strokeColor=#d79b00;" parent="1" vertex="1">
          <mxGeometry x="275" y="750" width="40" height="40" as="geometry" />
        </mxCell>
        <mxCell id="HR6j5fSbUc3XfzlXhDWu-59" value="" style="rounded=1;whiteSpace=wrap;html=1;direction=south;rotation=15;fillColor=#ffe6cc;strokeColor=#d79b00;" parent="1" vertex="1">
          <mxGeometry x="320" y="760" width="40" height="40" as="geometry" />
        </mxCell>
        <mxCell id="HR6j5fSbUc3XfzlXhDWu-60" value="[" style="rounded=1;whiteSpace=wrap;html=1;fillColor=#ffe6cc;strokeColor=#d79b00;" parent="1" vertex="1">
          <mxGeometry x="440" y="615" width="40" height="40" as="geometry" />
        </mxCell>
        <mxCell id="HR6j5fSbUc3XfzlXhDWu-61" value="" style="rounded=1;whiteSpace=wrap;html=1;fillColor=#ffe6cc;strokeColor=#d79b00;" parent="1" vertex="1">
          <mxGeometry x="485" y="605" width="40" height="40" as="geometry" />
        </mxCell>
        <mxCell id="HR6j5fSbUc3XfzlXhDWu-62" value="&lt;font style=&quot;font-size: 19px;&quot;&gt;↑&lt;/font&gt;" style="rounded=1;whiteSpace=wrap;html=1;fillColor=#ffe6cc;strokeColor=#d79b00;" parent="1" vertex="1">
          <mxGeometry x="530" y="600" width="40" height="40" as="geometry" />
        </mxCell>
        <mxCell id="HR6j5fSbUc3XfzlXhDWu-63" value="" style="rounded=1;whiteSpace=wrap;html=1;fillColor=#ffe6cc;strokeColor=#d79b00;" parent="1" vertex="1">
          <mxGeometry x="575" y="605" width="40" height="40" as="geometry" />
        </mxCell>
        <mxCell id="HR6j5fSbUc3XfzlXhDWu-64" value="]" style="rounded=1;whiteSpace=wrap;html=1;fillColor=#ffe6cc;strokeColor=#d79b00;" parent="1" vertex="1">
          <mxGeometry x="620" y="615" width="40" height="40" as="geometry" />
        </mxCell>
        <mxCell id="HR6j5fSbUc3XfzlXhDWu-65" value="(" style="rounded=1;whiteSpace=wrap;html=1;fillColor=#ffe6cc;strokeColor=#d79b00;" parent="1" vertex="1">
          <mxGeometry x="440" y="660" width="40" height="40" as="geometry" />
        </mxCell>
        <mxCell id="HR6j5fSbUc3XfzlXhDWu-66" value="&lt;font style=&quot;font-size: 19px;&quot;&gt;←&lt;/font&gt;" style="rounded=1;whiteSpace=wrap;html=1;fillColor=#ffe6cc;strokeColor=#d79b00;" parent="1" vertex="1">
          <mxGeometry x="485" y="650" width="40" height="40" as="geometry" />
        </mxCell>
        <mxCell id="HR6j5fSbUc3XfzlXhDWu-67" value="↓" style="rounded=1;whiteSpace=wrap;html=1;fillColor=#ffe6cc;strokeColor=#d79b00;fontSize=19;" parent="1" vertex="1">
          <mxGeometry x="530" y="645" width="40" height="40" as="geometry" />
        </mxCell>
        <mxCell id="HR6j5fSbUc3XfzlXhDWu-68" value="→" style="rounded=1;whiteSpace=wrap;html=1;fillColor=#ffe6cc;strokeColor=#d79b00;fontSize=19;" parent="1" vertex="1">
          <mxGeometry x="575" y="650" width="40" height="40" as="geometry" />
        </mxCell>
        <mxCell id="HR6j5fSbUc3XfzlXhDWu-69" value=")" style="rounded=1;whiteSpace=wrap;html=1;fillColor=#ffe6cc;strokeColor=#d79b00;" parent="1" vertex="1">
          <mxGeometry x="620" y="660" width="40" height="40" as="geometry" />
        </mxCell>
        <mxCell id="HR6j5fSbUc3XfzlXhDWu-70" value="{" style="rounded=1;whiteSpace=wrap;html=1;fillColor=#ffe6cc;strokeColor=#d79b00;" parent="1" vertex="1">
          <mxGeometry x="440" y="705" width="40" height="40" as="geometry" />
        </mxCell>
        <mxCell id="HR6j5fSbUc3XfzlXhDWu-71" value="+" style="rounded=1;whiteSpace=wrap;html=1;fillColor=#ffe6cc;strokeColor=#d79b00;" parent="1" vertex="1">
          <mxGeometry x="485" y="695" width="40" height="40" as="geometry" />
        </mxCell>
        <mxCell id="HR6j5fSbUc3XfzlXhDWu-72" value="=" style="rounded=1;whiteSpace=wrap;html=1;fillColor=#ffe6cc;strokeColor=#d79b00;" parent="1" vertex="1">
          <mxGeometry x="530" y="690" width="40" height="40" as="geometry" />
        </mxCell>
        <mxCell id="HR6j5fSbUc3XfzlXhDWu-73" value="-" style="rounded=1;whiteSpace=wrap;html=1;fillColor=#ffe6cc;strokeColor=#d79b00;" parent="1" vertex="1">
          <mxGeometry x="575" y="695" width="40" height="40" as="geometry" />
        </mxCell>
        <mxCell id="HR6j5fSbUc3XfzlXhDWu-74" value="}" style="rounded=1;whiteSpace=wrap;html=1;fillColor=#ffe6cc;strokeColor=#d79b00;" parent="1" vertex="1">
          <mxGeometry x="620" y="705" width="40" height="40" as="geometry" />
        </mxCell>
        <mxCell id="HR6j5fSbUc3XfzlXhDWu-75" value="" style="rounded=1;whiteSpace=wrap;html=1;fillColor=#ffe6cc;strokeColor=#d79b00;" parent="1" vertex="1">
          <mxGeometry x="515" y="745" width="40" height="40" as="geometry" />
        </mxCell>
        <mxCell id="HR6j5fSbUc3XfzlXhDWu-76" value="LAYER" style="rounded=1;whiteSpace=wrap;html=1;rotation=-10;fillColor=#ffe6cc;strokeColor=#d79b00;fontColor=#FFB570;fontSize=11;" parent="1" vertex="1">
          <mxGeometry x="465" y="750" width="40" height="40" as="geometry" />
        </mxCell>
        <mxCell id="HR6j5fSbUc3XfzlXhDWu-77" value="" style="rounded=1;whiteSpace=wrap;html=1;direction=south;rotation=-15;fillColor=#ffe6cc;strokeColor=#d79b00;" parent="1" vertex="1">
          <mxGeometry x="420" y="760" width="40" height="40" as="geometry" />
        </mxCell>
        <mxCell id="KmkTRFpb8Al42wT6mUvf-9" value="WIN" style="text;html=1;strokeColor=none;fillColor=none;align=center;verticalAlign=middle;whiteSpace=wrap;rounded=0;fontSize=8;fontColor=#A3A3A3;fontStyle=0" parent="1" vertex="1">
          <mxGeometry x="120" y="679" width="40" height="30" as="geometry" />
        </mxCell>
        <mxCell id="KmkTRFpb8Al42wT6mUvf-10" value="ALT" style="text;html=1;strokeColor=none;fillColor=none;align=center;verticalAlign=middle;whiteSpace=wrap;rounded=0;fontSize=8;fontColor=#A3A3A3;fontStyle=0" parent="1" vertex="1">
          <mxGeometry x="165" y="669" width="40" height="30" as="geometry" />
        </mxCell>
        <mxCell id="KmkTRFpb8Al42wT6mUvf-11" value="CTRL" style="text;html=1;strokeColor=none;fillColor=none;align=center;verticalAlign=middle;whiteSpace=wrap;rounded=0;fontSize=8;fontColor=#A3A3A3;fontStyle=0" parent="1" vertex="1">
          <mxGeometry x="210" y="664" width="40" height="30" as="geometry" />
        </mxCell>
        <mxCell id="KmkTRFpb8Al42wT6mUvf-12" value="SHIFT" style="text;html=1;strokeColor=none;fillColor=none;align=center;verticalAlign=middle;whiteSpace=wrap;rounded=0;fontSize=8;fontColor=#A3A3A3;fontStyle=0" parent="1" vertex="1">
          <mxGeometry x="255" y="669" width="40" height="30" as="geometry" />
        </mxCell>
        <mxCell id="KmkTRFpb8Al42wT6mUvf-14" value="ALT" style="text;html=1;strokeColor=none;fillColor=none;align=center;verticalAlign=middle;whiteSpace=wrap;rounded=0;fontSize=8;fontColor=#A3A3A3;fontStyle=0" parent="1" vertex="1">
          <mxGeometry x="575" y="669" width="40" height="30" as="geometry" />
        </mxCell>
        <mxCell id="KmkTRFpb8Al42wT6mUvf-15" value="CTRL" style="text;html=1;strokeColor=none;fillColor=none;align=center;verticalAlign=middle;whiteSpace=wrap;rounded=0;fontSize=8;fontColor=#A3A3A3;fontStyle=0" parent="1" vertex="1">
          <mxGeometry x="530" y="664" width="40" height="30" as="geometry" />
        </mxCell>
        <mxCell id="KmkTRFpb8Al42wT6mUvf-16" value="SHIFT" style="text;html=1;strokeColor=none;fillColor=none;align=center;verticalAlign=middle;whiteSpace=wrap;rounded=0;fontSize=8;fontColor=#A3A3A3;fontStyle=0" parent="1" vertex="1">
          <mxGeometry x="485" y="669" width="40" height="30" as="geometry" />
        </mxCell>
        <mxCell id="AvlZlL0ac7L6XK9xm6jw-36" value="" style="rounded=1;whiteSpace=wrap;html=1;fillColor=#CCCCCC;fontColor=#333333;strokeColor=#666666;" parent="1" vertex="1">
          <mxGeometry x="298" y="375" width="40" height="40" as="geometry" />
        </mxCell>
        <mxCell id="AvlZlL0ac7L6XK9xm6jw-37" value="" style="rounded=1;whiteSpace=wrap;html=1;fillColor=#CCCCCC;fontColor=#333333;strokeColor=#666666;" parent="1" vertex="1">
          <mxGeometry x="298" y="420" width="40" height="40" as="geometry" />
        </mxCell>
        <mxCell id="AvlZlL0ac7L6XK9xm6jw-38" value="" style="rounded=1;whiteSpace=wrap;html=1;fillColor=#CCCCCC;fontColor=#333333;strokeColor=#666666;" parent="1" vertex="1">
          <mxGeometry x="298" y="330" width="40" height="40" as="geometry" />
        </mxCell>
        <mxCell id="AvlZlL0ac7L6XK9xm6jw-39" value="" style="rounded=1;whiteSpace=wrap;html=1;fillColor=#CCCCCC;fontColor=#333333;strokeColor=#666666;" parent="1" vertex="1">
          <mxGeometry x="442" y="375" width="40" height="40" as="geometry" />
        </mxCell>
        <mxCell id="AvlZlL0ac7L6XK9xm6jw-40" value="" style="rounded=1;whiteSpace=wrap;html=1;fillColor=#CCCCCC;fontColor=#333333;strokeColor=#666666;" parent="1" vertex="1">
          <mxGeometry x="442" y="420" width="40" height="40" as="geometry" />
        </mxCell>
        <mxCell id="AvlZlL0ac7L6XK9xm6jw-41" value="SLEEP" style="rounded=1;whiteSpace=wrap;html=1;fillColor=#CCCCCC;fontColor=#333333;strokeColor=#666666;" parent="1" vertex="1">
          <mxGeometry x="442" y="330" width="40" height="40" as="geometry" />
        </mxCell>
        <mxCell id="AvlZlL0ac7L6XK9xm6jw-42" value="" style="shape=image;verticalLabelPosition=bottom;labelBackgroundColor=default;verticalAlign=top;aspect=fixed;imageAspect=0;image=data:image/svg+xml,PHN2ZyB4bWxucz0iaHR0cDovL3d3dy53My5vcmcvMjAwMC9zdmciIHhtbDpzcGFjZT0icHJlc2VydmUiIGlkPSJzdmcxIiB2ZXJzaW9uPSIxLjEiIHZpZXdCb3g9IjAgMCAyMC4zNzYwODYgMTQuNTUzMTA2IiBoZWlnaHQ9IjE0LjU1MzEwNW1tIiB3aWR0aD0iMjAuMzc2MDg1bW0iPjxkZWZzIGlkPSJkZWZzMSIvPjxnIHRyYW5zZm9ybT0idHJhbnNsYXRlKDcuNzU0NDQ5MSwtNTQuNzIwNjEyKSIgaWQ9ImxheWVyMSI+PHBhdGggaWQ9InBhdGgxIiBkPSJtIDIuMTI2MTg3Niw2OS4wNTA0ODMgYyAtMC4xNTQ5MSwtMC4xMjgwNTkgLTEuMTgyNzIsLTEuMDE5OTYxIC0yLjI4NDAyLC0xLjk4MjAwNSBsIC0yLjAwMjM3LC0xLjc0OTE3MSAtMi41ODkxMDEsLTAuMDAzOCBjIC0xLjY1MTY5NCwtMC4wMDI0IC0yLjY0OTcwMywtMC4wMzYyMSAtMi43NTY0OTMsLTAuMDkzMzYgLTAuMDkyMDcsLTAuMDQ5MjcgLTAuMTkwMDYxLC0wLjIxMjk1IC0wLjIxNzc2MywtMC4zNjM3MjUgLTAuMDI3NywtMC4xNTA3NzYgLTAuMDM4ODcsLTEuNTM5NjQ5IC0wLjAyNDgxLC0zLjA4NjM4NSAwLjAyMzMyLC0yLjU2NTcwMiAwLjAzODgsLTIuODI1NDkyIDAuMTc2NjI1LC0yLjk2MzMzMyAwLjEzNzQ2MSwtMC4xMzc0NzggMC4zOTIxOTksLTAuMTUzNDAxIDIuODI4MjAzLC0wLjE3Njc3OSBsIDIuNjc3MTM5LC0wLjAyNTY5IDEuOTU1NDYsLTEuNzEwMzMyIGMgMi41MTAxOCwtMi4xOTU1MTUgMi40ODUsLTIuMTc1Mjg0IDIuNzA3OTksLTIuMTc1Mjg0IDAuMTA0MDcsMCAwLjI3MjU5LDAuMDc3NjggMC4zNzQ1MSwwLjE3MjYzMiBsIDAuMTg1MywwLjE3MjYzMSB2IDYuOTM2MDcxIDYuOTM2MDcgbCAtMC4xODUzLDAuMTcyNjMxIGMgLTAuMjUyMzgsMC4yMzUxMjkgLTAuNTEwMzMsMC4yMTY3NiAtMC44NDUzNywtMC4wNjAyIHogbSA0LjQzMzMsLTMuMzI2NDY1IGMgLTAuMTI2MDgsLTAuMTE3NDYgLTAuMTg1MywtMC4yNzI2NzIgLTAuMTg1MywtMC40ODU2NTYgMCwtMC4yODc5NjYgMC4wODYzLC0wLjM5OTUzNyAxLjA3ODI4LC0xLjM5MzcwMiBsIDEuMDc4MjgsLTEuMDgwNjc3IC0xLjA3ODI4LC0xLjA4MDY3OCBjIC0wLjk3NzE3LC0wLjk3OTMzNyAtMS4wNzgyOCwtMS4xMDg5NTYgLTEuMDc4MjgsLTEuMzgyMjQxIDAsLTAuMzcyODAyIDAuMjg0NTIsLTAuNjY5NzQ4IDAuNjQxNzMsLTAuNjY5NzQ4IDAuMjA3LDAgMC40MzA3MiwwLjE4MTM0NSAxLjMwNTYsMS4wNTgzMzMgMC41ODA2OSwwLjU4MjA4NCAxLjA5MjY2LDEuMDU4MzM0IDEuMTM3NzMsMS4wNTgzMzQgMC4wNDUxLDAgMC41NjMyNjA0LC0wLjQ3NjI1IDEuMTUxNTUwNCwtMS4wNTgzMzQgMC44ODcyNSwtMC44Nzc4OTcgMS4xMTI1NiwtMS4wNTgzMzMgMS4zMjE1MywtMS4wNTgzMzMgMC4yODgyNiwwIDAuNTk3MTIsMC4yNTAzMDEgMC42NzA3MiwwLjU0MzU1OCAwLjA3OTYsMC4zMTcyNTkgLTAuMTM2NTEsMC42MTc1NzYgLTEuMTg3ODgsMS42NTA1MzggbCAtMC45ODM2NSwwLjk2NjQzIDEuMTE1MTYsMS4xMjYxOTQgYyAxLjA2ODA5LDEuMDc4NjYgMS4xMTI4OSwxLjEzNzkyOCAxLjA2MTQxLDEuNDA0MjM2IC0wLjA2NzEsMC4zNDcwOTEgLTAuMzMxODksMC41NzQzNzcgLTAuNjY5MTcsMC41NzQzNzcgLTAuMjE3NjEsMCAtMC40MzAyNywtMC4xNjk5NSAtMS4zNDM5OSwtMS4wNzQwMjggbCAtMS4wODU0NzA0LC0xLjA3NDAyOSAtMS4wOTM4NiwxLjA3NDAyOSBjIC0wLjk2ODk5LDAuOTUxNDE5IC0xLjEyNjc5LDEuMDc0MDI4IC0xLjM4MjM0LDEuMDc0MDI4IC0wLjE3MzI4LDAgLTAuMzYyNDcsLTAuMDY4OTMgLTAuNDczNzcsLTAuMTcyNjMxIHoiIHN0eWxlPSJmaWxsOiMwMDAwMDAiLz48L2c+PC9zdmc+;" parent="1" vertex="1">
          <mxGeometry x="676.5" y="497.49" width="20" height="15" as="geometry" />
        </mxCell>
        <mxCell id="AvlZlL0ac7L6XK9xm6jw-43" value="" style="shape=image;verticalLabelPosition=bottom;labelBackgroundColor=default;verticalAlign=top;aspect=fixed;imageAspect=0;image=data:image/svg+xml,PHN2ZyB4bWxucz0iaHR0cDovL3d3dy53My5vcmcvMjAwMC9zdmciIHhtbDpzcGFjZT0icHJlc2VydmUiIGlkPSJzdmcxIiB2ZXJzaW9uPSIxLjEiIHZpZXdCb3g9IjAgMCAxNC45OTA4OTIgMTQuNTM2NjUzIiBoZWlnaHQ9IjE0LjUzNjY1M21tIiB3aWR0aD0iMTQuOTkwODkxbW0iPjxkZWZzIGlkPSJkZWZzMSIvPjxnIHRyYW5zZm9ybT0idHJhbnNsYXRlKC0xNy45MDYxNzEsLTUuMDE5MzM5OSkiIGlkPSJsYXllcjEiPjxwYXRoIGlkPSJwYXRoMSIgZD0ibSAyNy44OTQ1MSwxOS40MTkxOTkgYyAtMC4xMTUxMzYsLTAuMDgwMDEgLTEuMTA2MDczLC0wLjkzMTU2NCAtMi4yMDIwODIsLTEuODkyMzQgLTEuMDk2MDA5LC0wLjk2MDc3NiAtMi4wNjc4MjksLTEuNzg3MDUgLTIuMTU5NiwtMS44MzYxNjQgLTAuMTA1OTU2LC0wLjA1NjcxIC0xLjEwNTIzMywtMC4wOTA4OCAtMi43Mzc4MzQsLTAuMDkzNjMgLTIuMjk2MzU0LC0wLjAwMzkgLTIuNTg3OTUyLC0wLjAxOTY5IC0yLjcyOTksLTAuMTQ4MTUgLTAuMTQ5NzI0LC0wLjEzNTQ5OSAtMC4xNTg5MjMsLTAuMzE2NDg3IC0wLjE1ODkyMywtMy4xMjY5ODggMCwtMi43MTU1MzYyIDAuMDEzMjksLTIuOTk5NDQ1MiAwLjE0ODE2NywtMy4xNjQ2MzEyIDAuMTkzMzc3LC0wLjIzNjgzNiAwLjM1NTE5NywtMC4yNDk4OTIgMy4xNjk3MjYsLTAuMjU1NzQ5IGwgMi4zNDQyMjcsLTAuMDA0OSAyLjE4MDg4OSwtMS45MDc1NTcgYyAxLjE5OTQ4OSwtMS4wNDkxNTcgMi4yNzE5NzksLTEuOTMwNDIgMi4zODMzMSwtMS45NTgzNjIgMC4xMzMwMiwtMC4wMzMzOSAwLjI3OTcyNCwwLjAwNjkgMC40Mjc4ODUsMC4xMTc1MjEgbCAwLjIyNTQ2MywwLjE2ODMyNSAwLjAyMTY2LDYuOTQ4MTczMiAwLjAyMTY2LDYuOTQ4MTcyIC0wLjIyMzU3NSwwLjE3NTg2NCBjIC0wLjI3MTk2MiwwLjIxMzkyNSAtMC40MzY4MTksMC4yMjA5NzEgLTAuNzExMDY3LDAuMDMwMzkgeiBtIDMuNDA4ODE1LC00Ljk4MDU1MiBjIC0wLjQ0OTY4MSwtMC4xODkwNzYgLTAuNDgxMzI2LC0wLjY0NDI0MiAtMC4wODMzMiwtMS4xOTg0NTQgMC4yNDU2NzMsLTAuMzQyMDkzIDAuMjc1MTY3LC0wLjQ0NDY1NSAwLjI3NTE2NywtMC45NTY4NTMgMCwtMC41MTIxOTggLTAuMDI5NDksLTAuNjE0NzYgLTAuMjc1MTY3LC0wLjk1Njg1MyAtMC40MDQ4NzIsLTAuNTYzNzc1IC0wLjM1NTQ5LC0xLjAzNTg1OSAwLjEyOTM2MywtMS4yMzY2OTIgMC4zMzE0MjEsLTAuMTM3Mjc5MiAwLjYwNzEzNSwtMC4wMTc1MyAwLjk0NjY1NywwLjQxMTE1MSAwLjgxNTY5OCwxLjAyOTkwMiAwLjc5OTA2OCwyLjY0MzE5IC0wLjAzNzMyLDMuNjIwMzE5IC0wLjMyOTE5LDAuMzg0NTg0IC0wLjU4OTcxNywwLjQ3MTEzMyAtMC45NTUzODIsMC4zMTczODIgeiIgc3R5bGU9ImZpbGw6IzAwMDAwMCIvPjwvZz48L3N2Zz4=;" parent="1" vertex="1">
          <mxGeometry x="632.5" y="487.5" width="15" height="15" as="geometry" />
        </mxCell>
        <mxCell id="AvlZlL0ac7L6XK9xm6jw-44" value="" style="shape=image;verticalLabelPosition=bottom;labelBackgroundColor=default;verticalAlign=top;aspect=fixed;imageAspect=0;image=data:image/svg+xml,PHN2ZyB4bWxucz0iaHR0cDovL3d3dy53My5vcmcvMjAwMC9zdmciIHhtbDpzcGFjZT0icHJlc2VydmUiIGlkPSJzdmcxIiB2ZXJzaW9uPSIxLjEiIHZpZXdCb3g9IjAgMCA1MC42NDc3OTUgMzYuMzI4MzciIGhlaWdodD0iMzYuMzI4MzY5bW0iIHdpZHRoPSI1MC42NDc3OTNtbSI+PGRlZnMgaWQ9ImRlZnMxIi8+PGcgdHJhbnNmb3JtPSJ0cmFuc2xhdGUoMTguNTE5MjA4LC00NS4yMzg2MjcpIiBpZD0ibGF5ZXIxIj48cGF0aCBpZD0icGF0aDEiIGQ9Im0gMy4zNTg2MjQ3LDc4LjYwNDAwOSBjIC0xLjkwNDU1OSwtMS42NTEyNDEgLTQuMzk4MTk4LC0zLjgzMTQyIC01LjU0MTQyMSwtNC44NDQ4NDMgLTEuMjc4MjE5LC0xLjEzMzA5MSAtMi4zMjc1NzIsLTEuODkyMzgzIC0yLjcyNTIwOSwtMS45NzE5MTEgLTAuMzU1NjQxLC0wLjA3MTEzIC0zLjM4MjIwMiwtMC4xMjkzMjQgLTYuNzI1Njg5NywtMC4xMjkzMjQgLTUuOTExMzE5LDAgLTYuMDkwMTk1LC0wLjAxMjMgLTYuNDgyMjkxLC0wLjQ0NTU1NSAtMC4zODAyOSwtMC40MjAyMTYgLTAuNDAzMjIyLC0wLjg2NTI5MSAtMC40MDMyMjIsLTcuODI1Nzg3IHYgLTcuMzgwMjMxIGwgMC40ODE3OTMsLTAuNDgyMTMgYyAwLjQ3NjA3NSwtMC40NzY0MDcgMC41NjA3OTcsLTAuNDgzMzg1IDcuMTM4NjM3LC0wLjU4Nzk2MyBsIDYuNjU2ODQzNywtMC4xMDU4MzMgNS4yMTQzMjgsLTQuNTUwODMzIGMgMi44Njc4OCwtMi41MDI5NTggNS40MjgyNDksLTQuNjgzNjU2IDUuNjg5NzA4LC00Ljg0NTk5NCAwLjY2OTA1MiwtMC40MTU0MSAxLjUxOTk0NSwtMC4xNDU1MzIgMS45MDgxNzIsMC42MDUyMTYgMC4yNzk0MSwwLjU0MDMxOCAwLjMyMTM1LDIuODA2NTYxIDAuMzIxMzUsMTcuMzY0MTExIDAsMTcuNzUxMTE5IDAuMDAyNiwxNy43MDE2OTIgLTAuOTYxOTgzLDE4LjA3MTg0OSAtMC43ODEzMjIsMC4yOTk4MjEgLTEuMjYyNzc5LC0wLjAwMjUgLTQuNTcxMDE2LC0yLjg3MDc3MiB6IE0gMjQuNDM5NTAyLDc2LjQzMDA1MiBjIC0wLjgyMTA4NSwtMC44MjEwODUgLTAuNjg4NzY3LC0xLjU3NjIwNiAwLjUyNTU1MiwtMi45OTkyMzYgMS40NDAxODksLTEuNjg3NzIxIDIuNDYxNjI0LC0zLjQ3NjE2NSAzLjEyODExLC01LjQ3NzA1MSAwLjQ5OTQ2OSwtMS40OTk0NzggMC41NjQwNDIsLTIuMDIwNDY1IDAuNTY0MDQyLC00LjU1MDgzMyAwLC0yLjUzMDM2OSAtMC4wNjQ1NywtMy4wNTEzNTYgLTAuNTY0MDQyLC00LjU1MDgzNCAtMC42NjY0ODYsLTIuMDAwODg2IC0xLjY4NzkyMSwtMy43ODkzMyAtMy4xMjgxMSwtNS40NzcwNTEgLTEuMjE0MzE5LC0xLjQyMzAzIC0xLjM0NjYzNywtMi4xNzgxNTEgLTAuNTI1NTUyLC0yLjk5OTIzNiAwLjk0ODU4MSwtMC45NDg1OCAxLjg1MDI3NywtMC42MzE3OTUgMy4zOTYyODgsMS4xOTMxODcgMy4xOTIyNTcsMy43NjgyODggNC43NTUxOTUsOC45NzM1MzYgNC4xNzI5NDcsMTMuODk3NjgzIC0wLjQyNjU0NCwzLjYwNzM0NSAtMS45MTEzNTQsNy4xMDk5MSAtNC4xMTIwMzMsOS43MDAwMDkgLTEuNjE5NTYyLDEuOTA2MTQ5IC0yLjQ5NDYzNywyLjIyNTkyNyAtMy40NTcyMDIsMS4yNjMzNjIgeiBtIC00Ljk2NDU0NSwtMy45MjU0NTQgYyAtMC42NzU4NTEsLTAuNjc1ODUxIC0wLjU1MzYsLTEuNzA5MDI4IDAuMzI2OTI1LC0yLjc2Mjk0NyAxLjEwNTM4NSwtMS4zMjMwNiAxLjcxNzMwNiwtMi40NzQzNSAyLjA5MTU0NSwtMy45MzUxMDYgMC44MDQ1MTMsLTMuMTQwMjI1IDAuMDg4NTIsLTYuMTMyOTY1IC0yLjA5MTU0NSwtOC43NDIzMzMgLTEuMjk0OTUyLC0xLjU0OTk1NiAtMC44NDc2OTcsLTMuMTg2MjggMC44NzA5MDUsLTMuMTg2MjggMC42NTI1NjEsMCAwLjkxODg0OCwwLjE1NzIyOSAxLjY5MTM3OCwwLjk5ODY3NCAxLjg3Nzc0MywyLjA0NTI0OSAzLjI0OTEyNSw1LjY0NDAxOSAzLjI0OTEyNSw4LjUyNjMyNiAwLDIuOTAxMTk2IC0xLjM3NjYzOSw2LjQ5NTQwOCAtMy4yNjMxMzMsOC41MTk1ODMgLTAuNzgwNTg3LDAuODM3NTU2IC0xLjA2MzQ4NiwxLjAwNTQxNiAtMS42OTQ0NDgsMS4wMDU0MTYgLTAuNDc1MTk3LDAgLTAuOTE1MTU3LC0wLjE1NzczOCAtMS4xODA3NTIsLTAuNDIzMzMzIHogbSAtNC4xNTgzMTIsLTMuNTMzMTUgYyAtMC41NjgyNzEsLTAuMTExMTU3IC0xLjA2MTEzOSwtMC42NDYwOSAtMS4yMzAxODksLTEuMzM1MTgzIC0wLjA5NTc3LC0wLjM5MDM3IDAuMDY2MDksLTAuODMyMDcyIDAuNjE3MDk0LC0xLjY4Mzk5OSAwLjgyNjY3LC0xLjI3ODE1MyAxLjA3NDgwOCwtMi4xOTU5OTEgMC44Nzc3MTUsLTMuMjQ2NTg2IC0wLjA3MTk0LC0wLjM4MzQ4OCAtMC40NjY5MTQsLTEuMjE2OTI1IC0wLjg3NzcxNSwtMS44NTIwODMgLTAuNzk3OTQ3LC0xLjIzMzc0MyAtMC44MzE5ODgsLTEuODc0NzQ1IC0wLjEzNjQ5NywtMi41NzAyMzYgMS4wMDIyODMsLTEuMDAyMjgzIDIuMjc2NjM3LC0wLjQ5MTQ1NiAzLjM4MDQxNiwxLjM1NTA0NiAxLjM5OTAzOSwyLjM0MDQ0IDEuMzk5MDM5LDUuMTg4NjA5IDAsNy41MjkwNDkgLTAuNTg5NTIzLDAuOTg2MjA4IC0xLjcwMjM3OCwyLjAxODQ2MSAtMi4wNzA4NDUsMS45MjA4NTkgLTAuMDU4MjEsLTAuMDE1NDIgLTAuMzEwMTk5LC0wLjA2ODAxIC0wLjU1OTk3OSwtMC4xMTY4NjcgeiIgc3R5bGU9ImZpbGw6IzAwMDAwMCIvPjwvZz48L3N2Zz4=;" parent="1" vertex="1">
          <mxGeometry x="721.04" y="497.49" width="20.92" height="14.76" as="geometry" />
        </mxCell>
        <mxCell id="BcWPNaIG3r9N4p3icg39-1" value="" style="shape=image;verticalLabelPosition=bottom;labelBackgroundColor=default;verticalAlign=top;aspect=fixed;imageAspect=0;image=data:image/svg+xml,PHN2ZyB4bWxucz0iaHR0cDovL3d3dy53My5vcmcvMjAwMC9zdmciIHhtbDpzcGFjZT0icHJlc2VydmUiIGlkPSJzdmcxIiB2ZXJzaW9uPSIxLjEiIHZpZXdCb3g9IjAgMCA1Ni4zNDc2NjQgNTYuNDM4Nzg1IiBoZWlnaHQ9IjU2LjQzODc4Nm1tIiB3aWR0aD0iNTYuMzQ3NjY0bW0iPjxkZWZzIGlkPSJkZWZzMSIvPjxnIHRyYW5zZm9ybT0idHJhbnNsYXRlKC0xMi40MTY0NDUsLTgwLjIyNTk5MikiIGlkPSJsYXllcjEiPjxwYXRoIGlkPSJwYXRoNCIgZD0ibSAzOS42MjY4NTYsMTM2LjQ3NDc1IGMgLTIuMjk0MDYsLTAuOTkyMjkgLTIuNzgzMTUsLTYuMDgyOTUgLTAuNzM4OTEsLTcuNjkwOTUgMS40ODU5OCwtMS4xNjg4NyAzLjY5ODEyLC0wLjQwNTMzIDQuMzI0NTEsMS40OTI2NCAxLjE0NjE2LDMuNDcyOTEgLTEuMDYxOTEsNy4yODk5MyAtMy41ODU2LDYuMTk4MzEgeiBtIC0xOC45MzgwNjMsLTguMjAzOSBjIC0xLjU1MzUsLTEuNTUzNSAtMC43NzE3NiwtMy44OTUzMiAxLjk2MTIxMywtNS44NzUwNyAyLjg4NjQ3LC0yLjA5MDk1IDUuOTgxNjUsMC42MzMyOSA0LjEyNzcyLDMuNjMzMDIgLTEuNzU3MTEsMi44NDMwNiAtNC40ODM4NzMsMy44NDcxMSAtNi4wODg5MzMsMi4yNDIwNSB6IG0gMzUuNDI3MTUzLC0wLjI5MTE4IGMgLTIuNDUyMzgsLTIuMTAyMDggLTMuMDE2MTgsLTQuMTE0NjYgLTEuNTYwNDgsLTUuNTcwMzYgMS40OTY0MiwtMS40OTY0MiAzLjg4ODc2LC0wLjcwNDk1IDUuOTIwNDEsMS45NTg2OCAyLjQ1MzM5LDMuMjE2NTUgLTEuMjQ1ODcsNi4yODA5NCAtNC4zNTk5MywzLjYxMTY4IHogbSAtMTkuMjM5NjksLTMuMDQ4NzYgYyAtMTIuOTA1NTMsLTIuNzk5NTggLTE3LjYwMjg2MywtMTkuMDU0NzkgLTguMjE4NjksLTI4LjQ0MDkxMSAxMC45MTk5OSwtMTAuOTIyMjUgMjkuNjExMTksLTIuNTU1OTUgMjguNzQ2MzgsMTIuODY3MDgxIC0wLjU3OTU0LDEwLjMzNTQyIC0xMC4zODQ0OSwxNy43NzQxOCAtMjAuNTI3NjksMTUuNTczODMgeiBtIDQuOTk5NTYsLTguMzk1OCBjIDAuOTYxODQsLTAuNDgwNiAxLjU4NjYxLC0xLjkyNDA0IDEuNTg3MDksLTMuNjY2NzMgNC4xZS00LC0xLjQ5MTUgNC4xZS00LC0xLjQ5MTUgMS44NDQwNCwtMS41OTU2NyA1LjA4MzQzLC0wLjI4NzI0IDUuMTA4ODYsLTUuNDQzMjQgMC4wMjgzLC01LjczMDMyIC0xLjgxNTM3LC0wLjEwMjU4IC0xLjgxNTM3LC0wLjEwMjU4IC0xLjkxNzk0LC0xLjkxNzk0IC0wLjI4NTg2LC01LjA1ODk0MSAtNS40NDI4NywtNS4wNTg5NDEgLTUuNzI4NzIsMCAtMC4xMDI1OCwxLjgxNTM2IC0wLjEwMjU4LDEuODE1MzYgLTEuOTE3OTUsMS45MTc5NCAtNS4wODA2LDAuMjg3MDggLTUuMDU1MTcsNS40NDMwOCAwLjAyODMsNS43MzAzMiAxLjg0MzYzLDAuMTA0MTcgMS44NDM2MywwLjEwNDE3IDEuODQ0MDQsMS41OTU2NyA2LjhlLTQsMi40NTk1MiAxLjEyMDE0LDMuOTk3MjQgMi45MTAwMSwzLjk5NzI0IDAuMzYzOCwwIDAuOTU5MTEsLTAuMTQ4NzMgMS4zMjI5MSwtMC4zMzA1MSB6IG0gLTI3LjUxNjY2MywtNS40MDQxMyBjIC0yLjM4NDY2LC0wLjg2NzcyIC0yLjYzODQzLC00LjE1NjM1IC0wLjQwMjU5LC01LjIxNzMzIDMuNzI5NzIsLTEuNzY5ODYgOC4zMzIwNywxLjE3ODY2IDYuMzIxMTMsNC4wNDk2OCAtMC43ODYyNSwxLjEyMjUzIC00LjE5NDYsMS43OTQ5NSAtNS45MTg1NCwxLjE2NzY1IHogbSA0Ny43MjUwOTMsLTAuMTgwNSBjIC0yLjQxOTcxLC0xLjA5MjY2IC0yLjIxNTM4LC00LjM2MDQ3IDAuMzI1MDgsLTUuMTk4OSA0LjI3NzI4LC0xLjQxMTYzIDguMTcxMiwxLjg1MzgzIDUuNDUyNTEsNC41NzI1MSAtMS4wMTA0LDEuMDEwNCAtNC4xNjg4NywxLjM1MjgzIC01Ljc3NzU5LDAuNjI2MzkgeiBNIDIyLjgxMzg4Niw5NC41NDY2MzkgYyAtMi44MTYzNTMsLTEuOTEzNzYgLTMuNzA0OTAzLC00LjQyNDE4IC0yLjEyNTA5MywtNi4wMDM5OSAxLjYwMDcyLC0xLjYwMDcyIDQuMjA1NDMzLC0wLjU5NDYyIDYuMTk4NjgzLDIuMzk0MzMgMS43NTUzMiwyLjYzMjE1IC0xLjM5ODkxLDUuNDI3MTUgLTQuMDczNTksMy42MDk2NiB6IG0gMzEuNzQxNTgsLTAuMTQyNDUgYyAtMS40OTUzMiwtMS40OTUzMiAtMC43OTgwMiwtMy43MjYxNSAxLjgxMDQ3LC01Ljc5MjEyIDMuNDM4MTQsLTIuNzIzMDUgNi41Njc3MywxLjEyOTc3IDMuNTk5NDMsNC40MzEyMyAtMi4xMDIxOSwyLjMzODE1IC0zLjk2NDI0LDIuODA2NTUgLTUuNDA5OSwxLjM2MDg5IHogbSAtMTUuNTU5MTQsLTYuMjcyNjQgYyAtMi4wNTg5OSwtMS40NDIxNyAtMS43ODk3NSwtNi41OTc2NjEgMC4zOTg4LC03LjYzNjE5NCAyLjc0MTM4LC0xLjMwMDg3IDUuMDM5OTYsMi4zMzcwOTcgMy44MTczMyw2LjA0MTcwNCAtMC42MDE4MiwxLjgyMzUzIC0yLjczNjUyLDIuNjMwODUgLTQuMjE2MTMsMS41OTQ0OSB6IiBzdHlsZT0iZmlsbDojMDAwMDAwIi8+PC9nPjwvc3ZnPg==;" vertex="1" parent="1">
          <mxGeometry x="449.25" y="382.25" width="25.5" height="25.5" as="geometry" />
        </mxCell>
        <mxCell id="BcWPNaIG3r9N4p3icg39-2" value="" style="shape=image;verticalLabelPosition=bottom;labelBackgroundColor=default;verticalAlign=top;aspect=fixed;imageAspect=0;image=data:image/svg+xml,PHN2ZyB4bWxucz0iaHR0cDovL3d3dy53My5vcmcvMjAwMC9zdmciIHhtbDpzcGFjZT0icHJlc2VydmUiIGlkPSJzdmcxIiB2ZXJzaW9uPSIxLjEiIHZpZXdCb3g9IjAgMCA1Ni4zMzg5ODIgNTYuNDM4NzkzIiBoZWlnaHQ9IjU2LjQzODc5M21tIiB3aWR0aD0iNTYuMzM4OTgybW0iPjxkZWZzIGlkPSJkZWZzMSIvPjxnIHRyYW5zZm9ybT0idHJhbnNsYXRlKC0yMC4wODkzNTksLTIxLjc1MzA3NSkiIGlkPSJsYXllcjEiPjxwYXRoIGlkPSJwYXRoMyIgZD0ibSA0Ny4yOTEwOTMsNzguMDAxODQxIGMgLTIuMjk0MDYsLTAuOTkyMjk2IC0yLjc4MzE1LC02LjA4Mjk1OCAtMC43Mzg5MiwtNy42OTA5NTYgMS40ODU5OSwtMS4xNjg4NzUgMy42OTgxMiwtMC40MDUzMzcgNC4zMjQ1MSwxLjQ5MjY0MiAxLjE0NjE3LDMuNDcyOTAzIC0xLjA2MTkxLDcuMjg5OTMzIC0zLjU4NTU5LDYuMTk4MzE0IHogbSAtMTguOTM4MDYsLTguMjAzOTA3IGMgLTEuNTUzNSwtMS41NTM1MDIgLTAuNzcxNzYsLTMuODk1MzI0IDEuOTYxMjEsLTUuODc1MDc0IDIuODg2NDcsLTIuMDkwOTQ5IDUuOTgxNjUsMC42MzMyODcgNC4xMjc3MSwzLjYzMzAyMyAtMS43NTcxMSwyLjg0MzA2MyAtNC40ODM4NywzLjg0NzEwNSAtNi4wODg5MiwyLjI0MjA1MSB6IG0gMzUuNDI3MTUsLTAuMjkxMTgyIGMgLTIuNDUyMzgsLTIuMTAyMDg0IC0zLjAxNjE4LC00LjExNDY1OCAtMS41NjA0OSwtNS41NzAzNTYgMS40ODc0MiwtMS40ODc0MTIgMy43MjY1MSwtMC43OTc1NjQgNS43NjQ5MSwxLjc3NjEyNSAyLjY1MzM1LDMuMzUwMTMzIC0wLjkzOTY5LDYuNTkyNjM0IC00LjIwNDQyLDMuNzk0MjMxIHogbSAtMTkuMjM5NywtMy4wNDg3NTkgYyAtMTAuOTc4NTIsLTIuMzgxNTU2IC0xNi42MTk1NCwtMTUuMjU0OTMgLTEwLjk1MDA3LC0yNC45ODkxNDkgNS41Mzc4NCwtOS41MDgyMDEgMTguNjYwODUsLTExLjI5MjQ0OSAyNi4zNzM4MiwtMy41ODU4NzIgMTIuMDE0NTQsMTIuMDA0NTgxIDEuMTMxOTIsMzIuMTY2NDIxIC0xNS40MjM3NSwyOC41NzUwMjEgeiBtIDEwLjk5Nzk1LC0xNC4zMDIxMjggYyAxLjQ1MzExLC0xLjA4NTkxOSAxLjQ1MzE0LC0zLjM1ODA4NiA2ZS01LC00LjQ0NDA2NSAtMC44NjkwOSwtMC42NDk1MTkgLTExLjc5OTcxLC0xLjAwNDEgLTEzLjY5NDQzLC0wLjQ0NDIzNiAtMi41MDM2NywwLjczOTc5OCAtMi44MTc3OCwzLjk0MTE2MyAtMC41MDI0MSw1LjEyMDQxNiAxLjQ5MjM5LDAuNzYwMSAxMy4xMjM1MywwLjU2OTkzMyAxNC4xOTY3OCwtMC4yMzIxMTUgeiBtIC0zMy4zODI3NTUsMC40OTk2NzMgYyAtMi40NjM1NjksLTAuNTkyNzc5IC0yLjgyNjEyOCwtNC4xMjc1MzQgLTAuNTM0ODgyLC01LjIxNDgwMiAxLjg4NjMxLC0wLjg5NTExMiA1LjQwMzE2NywtMC4zNzQwNjYgNi4zMjExMzcsMC45MzY1MTkgMS44OTc4OCwyLjcwOTYwOSAtMS41ODk0Niw1LjI4ODEwNyAtNS43ODYyNTUsNC4yNzgyODMgeiBtIDQ3LjU5Mjc5NSwtMC4xNzc5NzcgYyAtMi40MTk3MSwtMS4wOTI2NTggLTIuMjE1MzgsLTQuMzYwNDczIDAuMzI1MDgsLTUuMTk4OSA0LjI3NzI5LC0xLjQxMTYzMiA4LjE3MTIsMS44NTM4MjkgNS40NTI1Miw0LjU3MjUxMyAtMS4wMTA0LDEuMDEwNCAtNC4xNjg4NywxLjM1MjgzMSAtNS43Nzc2LDAuNjI2Mzg3IHogTSAzMC43NDczNjMsMzYuMjY4NDA4IGMgLTIuOTg4OTUsLTEuOTkzMjUxIC0zLjk5NTA1LC00LjU5Nzk1NyAtMi4zOTQzMywtNi4xOTg2NzcgMS42MDA3MiwtMS42MDA3MiA0LjIwNTQzLC0wLjU5NDYxNSA2LjE5ODY4LDIuMzk0MzI4IDEuNjMwMTYsMi40NDQ0NzUgLTEuMzU5ODgsNS40MzQ1MDggLTMuODA0MzUsMy44MDQzNDkgeiBtIDMxLjQ3MjMzLC0wLjMzNzEzOSBjIC0xLjQ5NTMxLC0xLjQ5NTMxOSAtMC43OTgwMSwtMy43MjYxNDkgMS44MTA0OCwtNS43OTIxMTIgMy40MzgxMywtMi43MjMwNTIgNi41Njc3MywxLjEyOTc2MyAzLjU5OTQzLDQuNDMxMjI1IC0yLjEwMjIsMi4zMzgxNDUgLTMuOTY0MjQsMi44MDY1NTIgLTUuNDA5OTEsMS4zNjA4ODcgeiBNIDQ2LjY2MDU1MywyOS42NTg2MyBjIC0yLjA1ODk5LC0xLjQ0MjE3MyAtMS43ODk3NCwtNi41OTc2NTkgMC4zOTg4LC03LjYzNjE5MSAyLjc0MTM4LC0xLjMwMDg3MSA1LjAzOTk2LDIuMzM3MDk2IDMuODE3MzMsNi4wNDE2OTkgLTAuNjAxODIsMS44MjM1MzkgLTIuNzM2NTEsMi42MzA4NTUgLTQuMjE2MTMsMS41OTQ0OTIgeiIgc3R5bGU9ImZpbGw6IzAwMDAwMCIvPjwvZz48L3N2Zz4=;" vertex="1" parent="1">
          <mxGeometry x="448.38" y="426.37" width="27.25" height="27.25" as="geometry" />
        </mxCell>
      </root>
    </mxGraphModel>
  </diagram>
</mxfile>
